<?xml version="1.0" standalone="no"?>
<!DOCTYPE svg PUBLIC "-//W3C//DTD SVG 20010904//EN"
 "http://www.w3.org/TR/2001/REC-SVG-20010904/DTD/svg10.dtd">
<svg version="1.0" xmlns="http://www.w3.org/2000/svg"
 width="1311.000000pt" height="1198.000000pt" viewBox="0 0 1311.000000 1198.000000"
 preserveAspectRatio="xMidYMid meet">

<g transform="translate(0.000000,1198.000000) scale(0.100000,-0.100000)"
fill="#000000" stroke="none">
<path d="M3955 11665 c-22 -8 -59 -15 -82 -15 -23 0 -57 -6 -75 -14 -18 -8
-50 -18 -70 -21 -21 -3 -38 -10 -38 -14 0 -5 -19 -11 -42 -14 -24 -3 -44 -11
-46 -16 -2 -6 -15 -11 -28 -11 -14 0 -27 -7 -30 -15 -4 -8 -18 -15 -34 -15
-16 0 -30 -7 -34 -15 -3 -8 -17 -15 -31 -15 -16 0 -25 -6 -25 -15 0 -9 -9 -15
-25 -15 -14 0 -28 -6 -31 -14 -3 -8 -16 -17 -30 -20 -13 -4 -24 -11 -24 -16 0
-6 -9 -10 -20 -10 -11 0 -20 -7 -20 -15 0 -8 -7 -15 -15 -15 -8 0 -15 -4 -15
-9 0 -5 -20 -21 -45 -35 -25 -15 -45 -31 -45 -36 0 -6 -7 -10 -15 -10 -8 0
-15 -7 -15 -15 0 -8 -7 -15 -15 -15 -8 0 -15 -7 -15 -15 0 -8 -7 -15 -15 -15
-8 0 -15 -7 -15 -15 0 -8 -7 -15 -15 -15 -8 0 -15 -7 -15 -15 0 -8 -7 -15 -15
-15 -8 0 -15 -7 -15 -15 0 -8 -7 -15 -15 -15 -8 0 -15 -6 -15 -14 0 -8 -7 -16
-15 -20 -8 -3 -15 -10 -15 -16 0 -11 -9 -24 -42 -61 -10 -10 -18 -23 -18 -29
0 -5 -7 -10 -15 -10 -8 0 -15 -8 -15 -19 0 -10 -7 -24 -15 -31 -8 -7 -15 -17
-15 -22 0 -5 -7 -16 -15 -24 -8 -9 -15 -24 -15 -34 0 -10 -7 -20 -15 -24 -8
-3 -15 -16 -15 -30 0 -13 -7 -26 -15 -30 -8 -3 -15 -15 -15 -26 0 -12 -7 -28
-15 -36 -8 -9 -15 -24 -15 -35 0 -11 -7 -27 -15 -35 -8 -9 -15 -27 -15 -42 0
-15 -7 -36 -15 -46 -8 -11 -15 -39 -15 -62 0 -23 -5 -44 -11 -46 -7 -2 -15
-38 -20 -78 -4 -41 -12 -95 -18 -120 -13 -57 -13 -281 0 -340 5 -25 14 -78 19
-119 5 -41 14 -79 20 -85 5 -5 10 -26 10 -45 0 -20 7 -45 15 -55 8 -11 15 -33
15 -48 0 -16 7 -31 15 -34 8 -4 15 -18 15 -34 0 -16 7 -35 15 -44 8 -8 15 -24
15 -35 0 -11 7 -26 15 -34 7 -8 17 -26 21 -41 3 -14 10 -26 14 -26 4 0 11 -11
14 -25 4 -14 11 -25 16 -25 6 0 10 -9 10 -20 0 -11 6 -20 14 -20 8 0 17 -13
21 -30 4 -16 11 -30 16 -30 5 0 9 -7 9 -15 0 -8 -7 -15 -15 -15 -8 0 -15 -7
-15 -15 0 -8 -4 -15 -8 -15 -10 0 -82 -96 -82 -110 0 -5 -7 -10 -15 -10 -8 0
-15 -7 -15 -15 0 -8 -7 -15 -15 -15 -8 0 -15 -7 -15 -15 0 -16 -8 -27 -42 -66
-10 -10 -18 -23 -18 -29 0 -5 -7 -10 -15 -10 -8 0 -15 -9 -15 -20 0 -11 -4
-20 -10 -20 -5 0 -12 -11 -16 -25 -3 -14 -12 -25 -20 -25 -8 0 -14 -7 -14 -15
0 -8 -4 -15 -9 -15 -5 0 -14 -13 -20 -30 -5 -16 -14 -30 -18 -30 -5 0 -17 -20
-28 -45 -11 -25 -26 -45 -32 -45 -7 0 -13 -9 -13 -20 0 -11 -4 -20 -10 -20 -5
0 -12 -11 -16 -24 -3 -14 -12 -27 -20 -30 -8 -3 -14 -15 -14 -26 0 -11 -7 -23
-15 -26 -8 -4 -15 -15 -15 -25 0 -10 -4 -19 -10 -19 -5 0 -12 -11 -16 -25 -3
-14 -10 -25 -14 -25 -5 0 -11 -13 -15 -29 -3 -16 -13 -32 -21 -35 -8 -3 -14
-17 -14 -31 0 -16 -6 -25 -15 -25 -10 0 -15 -10 -15 -30 0 -20 -5 -30 -15 -30
-10 0 -15 -10 -15 -30 0 -20 -5 -30 -15 -30 -10 0 -15 -10 -15 -29 0 -16 -6
-31 -15 -35 -8 -3 -15 -17 -15 -31 0 -14 -4 -25 -9 -25 -5 0 -13 -14 -16 -32
-4 -17 -14 -38 -21 -46 -8 -7 -14 -24 -14 -38 0 -14 -7 -27 -15 -30 -8 -4 -15
-18 -15 -34 0 -16 -5 -30 -10 -32 -6 -2 -13 -21 -17 -43 -3 -22 -12 -44 -20
-48 -7 -4 -13 -21 -13 -36 0 -16 -7 -34 -15 -41 -8 -7 -15 -18 -15 -24 0 -8
-61 -12 -206 -13 -161 -2 -212 -6 -236 -18 -17 -8 -46 -15 -65 -15 -18 0 -50
-7 -70 -15 -19 -8 -45 -15 -57 -15 -12 0 -31 -7 -42 -15 -10 -8 -29 -15 -40
-15 -12 0 -27 -7 -34 -15 -7 -8 -23 -15 -36 -15 -12 0 -29 -7 -38 -15 -8 -8
-21 -15 -29 -15 -8 0 -20 -7 -27 -15 -7 -8 -20 -15 -30 -15 -10 0 -20 -7 -24
-15 -3 -8 -17 -15 -31 -15 -15 0 -25 -6 -25 -14 0 -8 -11 -17 -25 -20 -14 -4
-25 -11 -25 -16 0 -6 -9 -10 -20 -10 -11 0 -20 -7 -20 -15 0 -8 -5 -15 -10
-15 -6 0 -19 -8 -29 -17 -37 -34 -50 -43 -61 -43 -6 0 -13 -7 -16 -15 -4 -8
-12 -15 -20 -15 -8 0 -14 -7 -14 -15 0 -8 -7 -15 -15 -15 -8 0 -15 -7 -15 -15
0 -8 -7 -15 -15 -15 -8 0 -15 -7 -15 -15 0 -8 -7 -15 -15 -15 -8 0 -15 -7 -15
-15 0 -8 -7 -15 -15 -15 -8 0 -15 -7 -15 -15 0 -8 -5 -15 -10 -15 -6 0 -14 -8
-17 -17 -7 -19 -17 -32 -45 -64 -10 -10 -18 -23 -18 -29 0 -5 -7 -10 -15 -10
-8 0 -15 -9 -15 -20 0 -11 -4 -20 -10 -20 -5 0 -12 -11 -16 -24 -3 -14 -12
-27 -20 -30 -8 -3 -14 -15 -14 -26 0 -11 -7 -23 -15 -26 -8 -4 -15 -14 -15
-24 0 -10 -7 -23 -15 -30 -8 -7 -15 -20 -15 -30 0 -10 -7 -23 -15 -30 -8 -7
-15 -25 -15 -40 0 -16 -7 -30 -15 -34 -9 -3 -15 -18 -15 -34 0 -16 -7 -35 -15
-42 -8 -7 -15 -27 -15 -45 0 -18 -7 -46 -15 -61 -8 -16 -15 -48 -15 -71 0 -24
-5 -43 -12 -46 -10 -3 -13 -71 -13 -297 0 -226 3 -294 13 -298 7 -2 12 -21 12
-45 0 -23 7 -55 15 -71 8 -15 15 -43 15 -61 0 -18 7 -38 15 -45 8 -7 15 -26
15 -42 0 -16 6 -31 15 -34 8 -4 15 -18 15 -34 0 -15 7 -33 15 -40 8 -7 15 -20
15 -30 0 -10 7 -23 15 -30 8 -7 15 -20 15 -30 0 -10 7 -20 15 -24 8 -3 15 -17
15 -31 0 -14 3 -25 8 -25 4 0 18 -21 32 -47 48 -94 75 -131 107 -148 18 -10
33 -24 33 -32 0 -7 7 -13 15 -13 8 0 15 -7 15 -15 0 -8 7 -15 15 -15 8 0 15
-7 15 -15 0 -8 7 -15 15 -15 8 0 15 -7 15 -15 0 -8 7 -15 15 -15 8 0 15 -7 15
-15 0 -8 6 -15 14 -15 8 0 16 -7 20 -15 3 -8 10 -15 16 -15 11 0 24 -9 61 -43
10 -9 24 -17 29 -17 6 0 10 -7 10 -15 0 -8 9 -15 20 -15 11 0 20 -4 20 -10 0
-5 11 -12 25 -16 14 -3 25 -12 25 -20 0 -8 10 -14 25 -14 14 0 28 -7 31 -15 4
-8 14 -15 24 -15 10 0 23 -7 30 -15 7 -8 20 -15 30 -15 10 0 23 -7 30 -15 7
-8 23 -15 35 -15 12 0 28 -7 35 -15 7 -8 22 -15 34 -15 11 0 30 -7 40 -15 11
-8 34 -15 50 -15 17 -1 42 -7 56 -15 14 -8 41 -14 61 -15 20 0 50 -7 66 -15
24 -12 76 -16 237 -18 145 -1 206 -5 206 -13 0 -6 7 -17 15 -24 8 -7 15 -25
15 -40 0 -15 6 -33 14 -39 7 -6 16 -29 20 -51 3 -22 11 -40 16 -40 6 0 10 -13
10 -29 0 -16 6 -31 15 -35 8 -3 15 -16 15 -30 0 -14 6 -31 14 -38 7 -8 17 -29
21 -46 3 -18 11 -32 16 -32 5 0 9 -11 9 -25 0 -14 7 -28 15 -31 9 -4 15 -19
15 -35 0 -19 5 -29 15 -29 10 0 15 -10 15 -30 0 -20 5 -30 15 -30 10 0 15 -10
15 -30 0 -20 5 -30 15 -30 9 0 15 -9 15 -25 0 -13 6 -28 13 -32 7 -4 24 -32
37 -60 14 -29 28 -53 32 -53 5 0 8 -9 8 -19 0 -10 7 -21 15 -25 8 -3 15 -15
15 -26 0 -11 6 -23 14 -26 8 -3 17 -16 20 -30 4 -13 11 -24 16 -24 6 0 10 -9
10 -20 0 -11 7 -20 15 -20 8 0 15 -8 15 -19 0 -10 7 -24 15 -31 8 -7 15 -19
15 -26 0 -8 4 -14 9 -14 10 0 34 -38 47 -72 3 -10 12 -18 19 -18 7 0 16 -11
19 -25 4 -14 11 -25 16 -25 6 0 10 -9 10 -20 0 -11 7 -20 15 -20 8 0 15 -4 15
-10 0 -5 8 -19 18 -29 34 -39 42 -50 42 -66 0 -8 7 -15 15 -15 8 0 15 -7 15
-15 0 -8 7 -15 15 -15 8 0 15 -5 15 -10 0 -14 72 -110 82 -110 4 0 8 -7 8 -15
0 -8 7 -15 15 -15 8 0 15 -7 15 -15 0 -8 -4 -15 -9 -15 -5 0 -12 -14 -16 -30
-4 -17 -13 -30 -21 -30 -8 0 -14 -9 -14 -20 0 -11 -4 -20 -10 -20 -5 0 -12
-11 -16 -25 -3 -14 -10 -25 -14 -25 -5 0 -11 -14 -15 -30 -4 -17 -10 -30 -15
-30 -5 0 -11 -14 -15 -30 -4 -17 -11 -30 -16 -30 -5 0 -12 -18 -15 -40 -4 -22
-13 -45 -20 -51 -8 -6 -14 -24 -14 -38 0 -15 -7 -36 -15 -47 -8 -10 -15 -35
-15 -56 0 -20 -5 -38 -10 -40 -6 -2 -15 -39 -20 -83 -5 -44 -14 -100 -19 -125
-13 -59 -13 -283 0 -340 6 -25 14 -79 18 -120 5 -40 13 -76 20 -78 6 -2 11
-23 11 -46 0 -23 7 -51 15 -62 8 -10 15 -31 15 -46 0 -15 7 -33 15 -42 8 -8
15 -24 15 -35 0 -11 7 -26 15 -35 8 -8 15 -24 15 -36 0 -11 7 -23 15 -26 9 -4
15 -19 15 -35 0 -19 5 -29 15 -29 8 0 15 -9 15 -19 0 -11 6 -26 13 -33 16 -19
35 -48 47 -75 5 -13 14 -23 20 -23 5 0 10 -4 10 -10 0 -5 8 -19 18 -29 33 -37
42 -50 42 -61 0 -6 7 -13 15 -16 8 -4 15 -12 15 -20 0 -8 7 -14 15 -14 8 0 15
-7 15 -15 0 -8 7 -15 15 -15 8 0 15 -7 15 -15 0 -8 7 -15 15 -15 8 0 15 -7 15
-15 0 -8 7 -15 15 -15 8 0 15 -7 15 -15 0 -8 7 -15 15 -15 8 0 15 -7 15 -15 0
-8 7 -15 15 -15 8 0 15 -4 15 -10 0 -5 20 -21 45 -36 25 -14 45 -30 45 -35 0
-5 7 -9 15 -9 8 0 15 -7 15 -15 0 -8 8 -15 19 -15 10 0 24 -7 31 -15 7 -8 18
-15 25 -15 7 0 15 -7 19 -15 3 -8 17 -15 31 -15 16 0 25 -6 25 -15 0 -10 10
-15 30 -15 20 0 30 -5 30 -15 0 -10 10 -15 29 -15 16 0 31 -6 35 -15 3 -8 16
-15 30 -15 13 0 26 -5 28 -11 2 -5 22 -13 46 -16 23 -3 42 -9 42 -14 0 -4 17
-11 38 -14 20 -3 52 -13 70 -21 18 -8 51 -14 73 -14 22 0 62 -7 89 -16 39 -13
86 -15 254 -12 147 2 209 7 218 15 6 7 34 13 61 13 27 0 63 6 80 14 18 8 49
17 70 21 20 3 37 10 37 14 0 5 19 11 42 14 24 3 44 11 46 16 2 6 16 11 32 11
16 0 30 7 34 15 3 8 15 15 26 15 12 0 28 7 36 15 9 8 24 15 34 15 10 0 20 7
24 15 3 8 17 15 31 15 15 0 25 6 25 14 0 8 11 17 25 20 14 4 25 11 25 16 0 6
9 10 20 10 11 0 20 6 20 14 0 8 11 17 25 20 14 4 25 11 25 16 0 6 7 10 15 10
9 0 18 7 21 15 4 8 12 15 20 15 8 0 14 7 14 15 0 8 7 15 15 15 8 0 15 7 15 15
0 8 7 15 15 15 8 0 15 7 15 15 0 8 7 15 15 15 8 0 15 7 15 15 0 8 7 15 15 15
8 0 15 7 15 15 0 8 7 15 15 15 8 0 15 7 15 15 0 8 7 15 15 15 8 0 15 7 15 15
0 8 7 15 15 15 8 0 15 7 15 15 0 8 4 15 9 15 10 0 34 38 47 73 3 9 13 17 20
17 8 0 14 9 14 20 0 11 4 20 10 20 5 0 12 11 16 24 3 14 12 27 20 30 8 3 14
17 14 31 0 16 6 25 15 25 9 0 15 9 15 25 0 14 7 28 15 31 8 4 15 12 15 20 0
19 62 18 115 -1 22 -8 72 -14 112 -15 43 0 73 -4 75 -11 2 -7 59 -15 153 -20
83 -5 191 -13 240 -18 115 -12 355 -12 465 -1 47 5 154 14 238 19 84 5 158 13
165 19 6 5 52 12 100 15 49 3 94 10 100 16 17 17 97 14 97 -3 0 -8 7 -16 15
-20 8 -3 15 -17 15 -31 0 -16 6 -25 15 -25 9 0 15 -9 15 -25 0 -14 6 -28 14
-31 8 -3 17 -16 20 -30 4 -13 11 -24 16 -24 6 0 10 -9 10 -20 0 -11 7 -20 15
-20 8 0 15 -5 15 -10 0 -12 41 -73 53 -78 4 -2 7 -10 7 -18 0 -8 7 -14 15 -14
8 0 15 -7 15 -15 0 -8 7 -15 15 -15 8 0 15 -7 15 -15 0 -8 7 -15 15 -15 8 0
15 -7 15 -15 0 -8 7 -15 15 -15 8 0 15 -7 15 -15 0 -8 7 -15 15 -15 8 0 15 -7
15 -15 0 -8 7 -15 15 -15 8 0 15 -7 15 -15 0 -8 7 -15 15 -15 8 0 15 -7 15
-15 0 -8 6 -15 14 -15 8 0 16 -7 20 -15 3 -8 12 -15 21 -15 8 0 15 -4 15 -10
0 -5 11 -12 25 -16 14 -3 25 -12 25 -20 0 -8 9 -14 20 -14 11 0 20 -4 20 -10
0 -5 11 -12 25 -16 14 -3 25 -12 25 -20 0 -8 10 -14 25 -14 14 0 28 -7 31 -15
4 -8 14 -15 24 -15 10 0 25 -7 34 -15 8 -8 24 -15 36 -15 11 0 23 -7 26 -15 4
-8 18 -15 34 -15 16 0 30 -5 32 -11 2 -5 22 -13 46 -16 23 -3 42 -9 42 -14 0
-4 17 -11 38 -14 20 -4 51 -13 69 -21 17 -8 53 -14 80 -14 27 0 55 -6 61 -13
21 -20 407 -23 475 -3 28 8 75 17 104 20 28 3 60 9 70 15 10 5 35 13 56 16 20
3 37 10 37 14 0 5 19 11 42 14 24 3 44 11 46 16 2 6 15 11 28 11 14 0 27 7 30
15 4 8 18 15 34 15 16 0 30 7 34 15 3 8 17 15 31 15 16 0 25 6 25 15 0 9 9 15
25 15 14 0 28 6 31 14 3 8 16 17 30 20 13 4 24 11 24 16 0 6 9 10 20 10 11 0
20 7 20 15 0 8 7 15 15 15 7 0 18 6 22 13 4 7 25 23 46 36 20 12 37 27 37 32
0 5 7 9 15 9 8 0 15 7 15 15 0 8 7 15 15 15 8 0 15 7 15 15 0 8 7 15 15 15 8
0 15 7 15 15 0 8 7 15 15 15 8 0 15 7 15 15 0 8 7 15 15 15 8 0 15 7 15 15 0
8 7 15 15 15 8 0 15 6 15 14 0 8 7 16 15 20 8 3 15 10 15 16 0 11 9 24 43 61
9 10 17 24 17 29 0 6 5 10 10 10 6 0 15 10 20 23 12 27 31 56 48 75 6 7 12 22
12 33 0 10 7 19 15 19 10 0 15 10 15 30 0 20 5 30 15 30 9 0 15 10 15 26 0 14
7 32 15 40 8 9 15 24 15 35 0 11 7 27 15 35 8 9 15 27 15 42 0 15 7 36 15 46
8 11 15 39 15 62 0 23 5 44 11 46 7 2 15 38 20 78 4 41 12 98 18 125 13 66 13
278 0 335 -6 25 -14 81 -19 125 -5 44 -13 81 -19 83 -6 2 -11 20 -11 40 0 21
-7 46 -15 56 -8 11 -15 32 -15 47 0 14 -6 32 -14 38 -7 6 -16 29 -20 51 -3 22
-10 40 -15 40 -5 0 -12 13 -16 30 -4 16 -10 30 -15 30 -5 0 -11 13 -15 30 -4
16 -10 30 -15 30 -4 0 -11 11 -14 25 -4 14 -11 25 -16 25 -6 0 -10 9 -10 20 0
11 -6 20 -14 20 -8 0 -17 13 -21 30 -4 16 -11 30 -16 30 -5 0 -9 7 -9 15 0 8
7 15 15 15 8 0 15 7 15 15 0 8 7 15 15 15 8 0 15 6 15 13 0 6 14 27 30 46 17
18 30 40 30 47 0 8 7 14 15 14 8 0 15 7 15 15 0 8 7 15 15 15 8 0 15 7 15 15
0 16 8 27 43 66 9 10 17 24 17 29 0 6 7 10 15 10 8 0 15 9 15 20 0 11 4 20 10
20 5 0 12 11 16 25 3 14 12 25 19 25 7 0 16 8 19 18 13 34 37 72 47 72 5 0 9
6 9 14 0 7 7 19 15 26 8 7 15 21 15 31 0 11 7 19 15 19 8 0 15 9 15 20 0 11 4
20 10 20 5 0 12 11 16 24 3 14 12 27 20 30 8 3 14 15 14 26 0 11 7 23 15 26 8
4 15 15 15 25 0 10 4 19 10 19 5 0 12 11 16 25 3 14 10 25 14 25 5 0 11 13 15
29 3 16 13 32 21 35 8 3 14 17 14 31 0 16 6 25 15 25 10 0 15 10 15 30 0 20 5
30 15 30 10 0 15 10 15 29 0 16 6 31 15 35 8 3 15 16 15 30 0 13 7 26 15 30 8
3 15 17 15 31 0 14 4 25 9 25 5 0 13 14 16 32 4 17 14 38 21 46 8 7 14 24 14
38 0 14 7 27 15 30 9 4 15 19 15 35 0 16 4 29 10 29 5 0 13 18 16 40 4 22 13
45 20 51 8 6 14 24 14 39 0 15 7 33 15 40 8 7 15 18 15 24 0 8 61 12 204 13
158 2 213 6 242 18 20 8 51 15 68 15 17 1 42 7 56 15 14 8 39 14 56 15 16 0
39 7 50 15 10 8 29 15 40 15 12 0 27 7 34 15 7 8 23 15 35 15 12 0 28 7 35 15
7 8 21 15 31 15 9 0 24 7 33 15 8 8 21 15 29 15 8 0 17 7 21 15 3 8 17 15 31
15 15 0 25 6 25 14 0 8 11 17 25 20 14 4 25 11 25 16 0 6 9 10 20 10 11 0 20
7 20 15 0 8 5 15 10 15 6 0 19 8 29 17 37 34 50 43 61 43 6 0 13 7 16 15 4 8
12 15 20 15 8 0 14 7 14 15 0 8 7 15 15 15 8 0 15 7 15 15 0 8 7 15 15 15 8 0
15 7 15 15 0 8 7 15 15 15 8 0 15 7 15 15 0 8 7 15 15 15 8 0 15 7 15 15 0 8
5 15 10 15 6 0 14 8 17 18 7 18 17 31 46 63 9 10 17 24 17 29 0 6 7 10 15 10
8 0 15 9 15 20 0 11 4 20 10 20 5 0 12 11 16 25 3 14 12 25 20 25 8 0 14 10
14 25 0 14 7 28 15 31 8 4 15 14 15 24 0 10 7 23 15 30 8 7 15 20 15 30 0 10
7 23 15 30 8 7 15 25 15 40 0 16 7 30 15 34 9 3 15 18 15 34 0 16 7 35 15 42
8 7 15 27 15 45 0 18 7 46 15 61 8 16 15 48 15 71 0 24 5 43 13 45 9 4 12 72
12 298 0 226 -3 294 -12 297 -8 3 -13 22 -13 46 0 23 -7 55 -15 71 -8 15 -15
43 -15 61 0 18 -7 38 -15 45 -8 7 -15 26 -15 42 0 16 -6 31 -15 34 -8 4 -15
18 -15 34 0 15 -7 33 -15 40 -8 7 -15 20 -15 30 0 10 -7 23 -15 30 -8 7 -15
20 -15 30 0 10 -7 20 -15 24 -8 3 -15 15 -15 26 0 11 -6 23 -14 26 -8 3 -17
16 -20 30 -4 13 -11 24 -16 24 -6 0 -10 9 -10 20 0 11 -7 20 -15 20 -8 0 -15
5 -15 10 0 6 -8 19 -17 29 -29 32 -39 45 -46 64 -3 9 -11 17 -17 17 -5 0 -10
7 -10 15 0 8 -7 15 -15 15 -8 0 -15 7 -15 15 0 8 -7 15 -15 15 -8 0 -15 7 -15
15 0 8 -7 15 -15 15 -8 0 -15 7 -15 15 0 8 -7 15 -15 15 -8 0 -15 7 -15 15 0
8 -6 15 -14 15 -8 0 -16 7 -20 15 -3 8 -10 15 -16 15 -11 0 -24 9 -61 43 -10
9 -23 17 -29 17 -5 0 -10 7 -10 15 0 8 -9 15 -20 15 -11 0 -20 4 -20 10 0 5
-11 12 -25 16 -14 3 -25 12 -25 20 0 8 -10 14 -25 14 -14 0 -28 7 -31 15 -4 8
-14 15 -24 15 -10 0 -23 7 -30 15 -7 8 -20 15 -30 15 -10 0 -23 7 -30 15 -7 8
-23 15 -35 15 -12 0 -28 7 -35 15 -7 8 -22 15 -34 15 -11 0 -30 7 -40 15 -11
8 -34 15 -50 15 -17 1 -42 7 -56 15 -14 8 -41 14 -61 15 -20 0 -50 7 -66 15
-24 12 -76 16 -237 18 -145 1 -206 5 -206 13 0 6 -7 17 -15 24 -8 7 -15 25
-15 40 0 15 -6 33 -14 39 -7 6 -16 29 -20 51 -3 22 -11 40 -16 40 -6 0 -10 13
-10 29 0 16 -6 31 -15 35 -8 3 -15 16 -15 30 0 14 -6 31 -14 38 -7 8 -17 29
-21 46 -3 18 -11 32 -16 32 -5 0 -9 11 -9 25 0 14 -6 28 -14 31 -8 3 -18 19
-21 35 -4 16 -11 31 -16 34 -5 4 -9 17 -9 31 0 15 -6 24 -15 24 -9 0 -15 9
-15 25 0 14 -7 28 -15 31 -8 4 -15 17 -15 30 0 14 -6 27 -14 30 -8 3 -18 19
-21 35 -4 16 -10 29 -15 29 -4 0 -11 11 -14 25 -4 14 -11 25 -16 25 -6 0 -10
9 -10 19 0 10 -7 21 -15 25 -8 3 -15 15 -15 26 0 11 -6 23 -14 26 -8 3 -17 16
-20 30 -4 13 -11 24 -16 24 -6 0 -10 9 -10 20 0 11 -7 20 -15 20 -8 0 -15 8
-15 19 0 10 -7 24 -15 31 -8 7 -15 19 -15 26 0 8 -5 14 -11 14 -5 0 -15 14
-20 30 -6 17 -15 30 -20 30 -5 0 -9 7 -9 15 0 8 -6 15 -14 15 -8 0 -17 11 -20
25 -4 14 -11 25 -16 25 -6 0 -10 9 -10 20 0 11 -7 20 -15 20 -8 0 -15 6 -15
14 0 8 -6 16 -13 19 -7 2 -22 23 -32 46 -11 22 -26 41 -32 41 -7 0 -13 7 -13
15 0 8 -7 15 -15 15 -8 0 -15 5 -15 10 0 14 -72 110 -82 110 -4 0 -8 7 -8 15
0 8 -7 15 -15 15 -8 0 -15 7 -15 15 0 8 4 15 9 15 5 0 12 14 16 30 4 17 13 30
21 30 8 0 14 9 14 20 0 11 4 20 10 20 5 0 12 11 16 25 3 14 10 25 14 25 5 0
11 14 15 30 4 17 10 30 15 30 5 0 11 14 15 30 4 17 11 30 16 30 5 0 12 18 15
40 4 22 13 45 20 51 8 6 14 24 14 38 0 15 7 36 15 47 8 10 15 36 15 56 0 20 5
38 10 40 6 2 15 39 20 83 5 44 14 100 19 125 13 58 13 270 0 335 -6 28 -14 84
-18 125 -5 40 -13 76 -20 78 -6 2 -11 23 -11 46 0 23 -7 51 -15 62 -8 10 -15
31 -15 45 0 15 -7 32 -15 39 -8 7 -15 23 -15 36 0 12 -7 29 -15 38 -8 8 -15
26 -15 40 0 16 -6 26 -15 26 -10 0 -15 10 -15 30 0 20 -5 30 -15 30 -8 0 -15
9 -15 19 0 11 -6 26 -12 33 -17 19 -36 48 -48 76 -5 12 -14 22 -20 22 -5 0
-10 6 -10 14 0 8 -6 16 -13 19 -7 2 -22 23 -32 46 -11 22 -26 41 -32 41 -7 0
-13 7 -13 15 0 8 -7 15 -15 15 -8 0 -15 7 -15 15 0 8 -7 15 -15 15 -8 0 -15 7
-15 15 0 8 -7 15 -15 15 -8 0 -15 7 -15 15 0 8 -7 15 -15 15 -8 0 -15 7 -15
15 0 8 -7 15 -15 15 -8 0 -15 7 -15 15 0 8 -7 15 -15 15 -8 0 -15 7 -15 15 0
8 -5 15 -11 15 -6 0 -28 14 -49 30 -21 17 -43 30 -49 30 -6 0 -11 7 -11 15 0
8 -9 15 -20 15 -11 0 -20 4 -20 10 0 5 -11 12 -24 16 -14 3 -27 12 -30 20 -3
8 -17 14 -31 14 -16 0 -25 6 -25 15 0 9 -9 15 -25 15 -14 0 -28 7 -31 15 -4 9
-19 15 -35 15 -19 0 -29 5 -29 15 0 10 -10 15 -29 15 -16 0 -31 5 -33 11 -2 5
-22 13 -46 16 -23 3 -42 9 -42 14 0 4 -17 11 -37 14 -21 3 -53 13 -71 21 -18
8 -51 14 -73 14 -22 0 -62 7 -89 16 -39 13 -86 15 -254 12 -147 -2 -209 -7
-218 -15 -6 -7 -34 -13 -61 -13 -27 0 -63 -6 -80 -14 -18 -8 -49 -17 -69 -21
-21 -3 -38 -10 -38 -14 0 -5 -19 -11 -42 -14 -24 -3 -44 -11 -46 -16 -2 -6
-16 -11 -32 -11 -16 0 -30 -7 -34 -15 -3 -8 -16 -15 -30 -15 -13 0 -26 -7 -30
-15 -3 -8 -16 -15 -30 -15 -13 0 -26 -7 -30 -15 -3 -8 -15 -15 -26 -15 -11 0
-23 -6 -26 -14 -3 -8 -16 -17 -30 -20 -13 -4 -24 -11 -24 -16 0 -6 -9 -10 -20
-10 -11 0 -20 -6 -20 -14 0 -8 -11 -17 -25 -20 -14 -4 -25 -11 -25 -16 0 -6
-7 -10 -15 -10 -9 0 -18 -7 -21 -15 -4 -8 -12 -15 -20 -15 -8 0 -14 -7 -14
-15 0 -8 -7 -15 -15 -15 -8 0 -15 -7 -15 -15 0 -8 -7 -15 -15 -15 -8 0 -15 -7
-15 -15 0 -8 -7 -15 -15 -15 -8 0 -15 -7 -15 -15 0 -8 -7 -15 -15 -15 -8 0
-15 -7 -15 -15 0 -8 -7 -15 -15 -15 -8 0 -15 -7 -15 -15 0 -8 -7 -15 -15 -15
-8 0 -15 -7 -15 -15 0 -8 -7 -15 -15 -15 -8 0 -15 -7 -15 -15 0 -8 -4 -15 -9
-15 -10 0 -34 -38 -47 -72 -3 -10 -13 -18 -20 -18 -8 0 -14 -9 -14 -20 0 -11
-4 -20 -10 -20 -5 0 -12 -11 -16 -24 -3 -14 -12 -27 -20 -30 -8 -3 -14 -17
-14 -31 0 -16 -6 -25 -15 -25 -9 0 -15 -9 -15 -25 0 -14 -7 -28 -15 -31 -8 -4
-15 -12 -15 -20 0 -17 -80 -20 -97 -3 -6 6 -51 13 -100 16 -48 3 -94 10 -100
16 -7 5 -82 13 -165 18 -84 5 -191 13 -238 18 -108 12 -350 12 -460 1 -47 -5
-155 -14 -240 -19 -95 -6 -156 -13 -158 -20 -2 -7 -33 -11 -75 -11 -40 -1 -90
-7 -112 -15 -53 -19 -115 -20 -115 -1 0 8 -7 16 -15 20 -8 3 -15 17 -15 31 0
16 -6 25 -15 25 -9 0 -15 9 -15 25 0 14 -6 28 -14 31 -8 3 -17 16 -20 30 -4
13 -11 24 -16 24 -6 0 -10 9 -10 20 0 11 -7 20 -15 20 -8 0 -15 5 -15 11 0 6
-13 28 -30 49 -16 21 -30 43 -30 49 0 6 -7 11 -15 11 -8 0 -15 7 -15 15 0 8
-7 15 -15 15 -8 0 -15 7 -15 15 0 8 -7 15 -15 15 -8 0 -15 7 -15 15 0 8 -7 15
-15 15 -8 0 -15 7 -15 15 0 8 -7 15 -15 15 -8 0 -15 7 -15 15 0 8 -7 15 -15
15 -8 0 -15 7 -15 15 0 8 -7 15 -15 15 -8 0 -15 7 -15 15 0 8 -6 15 -14 15 -8
0 -16 7 -20 15 -3 8 -12 15 -21 15 -8 0 -15 4 -15 10 0 5 -11 12 -25 16 -14 3
-25 12 -25 20 0 8 -9 14 -20 14 -11 0 -20 4 -20 10 0 5 -11 12 -24 16 -14 3
-27 12 -30 20 -3 8 -15 14 -26 14 -11 0 -23 7 -26 15 -4 8 -11 15 -16 15 -6 0
-16 7 -22 15 -17 24 -188 87 -281 104 -22 4 -50 13 -62 19 -12 7 -46 12 -75
12 -30 0 -60 6 -66 13 -20 19 -424 22 -477 2z m425 -175 c11 -6 54 -13 97 -17
43 -3 80 -10 84 -14 3 -5 27 -13 53 -18 26 -5 53 -14 59 -20 6 -6 24 -11 39
-11 18 0 28 -5 28 -15 0 -10 10 -15 29 -15 16 0 31 -6 35 -15 3 -8 16 -15 30
-15 13 0 26 -7 30 -15 3 -8 17 -15 31 -15 16 0 25 -6 25 -15 0 -8 9 -15 19
-15 11 0 26 -7 35 -15 8 -8 19 -15 25 -15 6 0 11 -7 11 -15 0 -8 6 -15 14 -15
7 0 19 -7 26 -15 7 -8 21 -15 31 -15 11 0 19 -7 19 -15 0 -8 7 -15 15 -15 8 0
15 -7 15 -15 0 -8 7 -15 15 -15 8 0 15 -7 15 -15 0 -8 7 -15 15 -15 8 0 15 -7
15 -15 0 -8 7 -15 15 -15 8 0 15 -7 15 -15 0 -8 7 -15 15 -15 8 0 15 -7 15
-15 0 -8 7 -15 15 -15 8 0 15 -7 15 -15 0 -8 5 -15 11 -15 5 0 15 -13 20 -30
6 -16 15 -30 20 -30 5 0 9 -7 9 -15 0 -8 7 -15 15 -15 8 0 15 -6 15 -14 0 -7
7 -19 15 -26 8 -7 15 -21 15 -31 0 -11 7 -19 15 -19 10 0 15 -10 15 -30 0 -20
5 -30 15 -30 9 0 15 -9 15 -25 0 -14 7 -28 15 -31 9 -4 15 -19 15 -35 0 -19 5
-29 15 -29 10 0 15 -10 15 -34 0 -18 7 -39 15 -46 9 -7 15 -29 15 -52 0 -25 5
-41 15 -44 11 -5 15 -22 15 -63 1 -33 7 -64 15 -75 22 -29 21 -452 0 -480 -9
-12 -15 -42 -15 -73 0 -38 -4 -55 -15 -59 -10 -4 -15 -20 -15 -50 0 -32 -4
-44 -15 -44 -11 0 -15 -11 -15 -40 0 -27 -5 -43 -15 -46 -9 -4 -15 -19 -15
-35 0 -19 -5 -29 -15 -29 -10 0 -15 -10 -15 -30 0 -20 -5 -30 -15 -30 -9 0
-15 -9 -15 -25 0 -14 -7 -28 -15 -31 -8 -4 -15 -12 -15 -19 0 -7 -7 -15 -15
-19 -8 -3 -15 -17 -15 -31 0 -16 -6 -25 -15 -25 -8 0 -15 -7 -15 -15 0 -8 -6
-15 -14 -15 -7 0 -17 -8 -20 -17 -13 -35 -37 -73 -47 -73 -5 0 -9 -7 -9 -15 0
-8 -7 -15 -15 -15 -8 0 -15 -7 -15 -15 0 -8 -7 -15 -15 -15 -8 0 -15 -7 -15
-15 0 -8 -7 -15 -15 -15 -8 0 -15 -7 -15 -15 0 -8 -6 -15 -14 -15 -8 0 -16 -7
-20 -15 -3 -8 -15 -15 -26 -15 -11 0 -23 -7 -26 -15 -4 -8 -12 -15 -20 -15 -8
0 -14 -7 -14 -15 0 -8 -6 -15 -14 -15 -8 0 -16 -7 -20 -15 -3 -8 -17 -15 -31
-15 -16 0 -25 -6 -25 -15 0 -8 -6 -15 -14 -15 -7 0 -19 -7 -26 -15 -7 -8 -20
-15 -30 -15 -10 0 -20 -7 -24 -15 -3 -8 -16 -15 -30 -15 -13 0 -26 -7 -30 -15
-3 -8 -16 -15 -28 -15 -13 0 -32 -7 -42 -15 -11 -8 -32 -15 -47 -15 -15 0 -29
-7 -33 -15 -3 -10 -19 -15 -44 -15 -21 0 -47 -7 -58 -15 -11 -8 -42 -15 -74
-15 -32 0 -63 -7 -74 -15 -29 -22 -392 -21 -420 0 -12 9 -42 15 -74 15 -34 0
-59 5 -68 15 -9 9 -34 15 -60 15 -30 0 -46 5 -50 15 -4 8 -18 15 -34 15 -15 0
-33 7 -40 15 -7 8 -26 15 -42 15 -16 0 -31 6 -34 15 -4 8 -17 15 -30 15 -14 0
-27 6 -30 13 -2 7 -25 22 -49 32 -25 11 -45 26 -45 33 0 6 -11 12 -25 12 -14
0 -28 7 -31 15 -4 8 -12 15 -20 15 -8 0 -14 7 -14 15 0 8 -7 15 -15 15 -8 0
-15 7 -15 15 0 8 -8 15 -18 15 -10 0 -32 14 -50 30 -18 17 -37 30 -43 30 -5 0
-9 7 -9 15 0 8 -7 15 -15 15 -8 0 -15 4 -15 9 0 6 -13 25 -30 43 -16 18 -30
38 -30 46 0 7 -7 15 -15 18 -8 4 -15 12 -15 20 0 8 -7 14 -15 14 -8 0 -15 6
-15 14 0 8 -7 16 -15 20 -8 3 -15 17 -15 31 0 16 -6 25 -15 25 -8 0 -15 6 -15
14 0 7 -7 19 -15 26 -8 7 -15 21 -15 31 0 11 -7 19 -15 19 -10 0 -15 10 -15
29 0 16 -6 31 -15 35 -8 3 -15 16 -15 28 0 13 -7 32 -15 42 -8 11 -15 32 -15
48 0 18 -5 28 -15 28 -11 0 -15 12 -15 43 0 23 -7 51 -15 61 -9 11 -15 41 -15
68 0 28 -7 59 -16 73 -22 34 -22 416 1 448 9 13 15 44 15 80 0 42 4 59 15 63
10 4 15 20 15 50 0 32 4 44 15 44 10 0 15 10 15 31 0 17 9 42 20 56 11 14 20
34 20 44 0 11 5 19 10 19 6 0 10 14 10 30 0 20 5 30 15 30 10 0 15 10 15 30 0
20 5 30 15 30 8 0 15 6 15 14 0 7 7 19 15 26 8 7 15 21 15 31 0 11 7 19 15 19
8 0 15 6 15 14 0 8 7 16 15 20 8 3 15 15 15 26 0 11 7 23 15 26 8 4 15 12 15
20 0 8 7 14 15 14 8 0 15 7 15 15 0 8 7 15 15 15 8 0 15 7 15 15 0 8 7 15 15
15 8 0 15 7 15 15 0 8 7 15 15 15 8 0 15 7 15 15 0 8 7 15 15 15 8 0 15 7 15
15 0 8 6 15 14 15 8 0 16 7 20 15 3 8 15 15 26 15 11 0 23 7 26 15 4 8 12 15
20 15 8 0 14 7 14 15 0 8 6 15 14 15 7 0 19 7 26 15 7 8 21 15 31 15 11 0 19
7 19 15 0 10 10 15 30 15 20 0 30 5 30 15 0 9 9 15 25 15 14 0 28 7 31 15 4 9
19 15 35 15 19 0 29 5 29 15 0 10 10 15 28 15 16 0 37 7 48 15 10 8 33 15 51
15 17 0 38 7 47 15 9 9 33 15 64 15 32 0 54 5 62 15 10 12 48 15 222 15 122 0
217 -4 228 -10z m4830 -5 c8 -10 30 -15 62 -15 31 0 55 -6 64 -15 9 -8 30 -15
48 -15 19 0 39 -7 46 -15 7 -8 28 -15 46 -15 24 0 34 -5 34 -15 0 -10 10 -15
29 -15 16 0 31 -6 35 -15 3 -8 17 -15 31 -15 16 0 25 -6 25 -15 0 -10 10 -15
30 -15 20 0 30 -5 30 -15 0 -8 8 -15 19 -15 10 0 24 -7 31 -15 7 -8 19 -15 26
-15 8 0 14 -7 14 -15 0 -8 6 -15 14 -15 8 0 16 -7 20 -15 3 -8 15 -15 26 -15
11 0 23 -7 26 -15 4 -8 12 -15 20 -15 8 0 14 -7 14 -15 0 -8 7 -15 15 -15 8 0
15 -7 15 -15 0 -8 7 -15 15 -15 8 0 15 -7 15 -15 0 -8 7 -15 15 -15 8 0 15 -7
15 -15 0 -8 7 -15 15 -15 8 0 15 -7 15 -15 0 -8 7 -15 15 -15 8 0 15 -7 15
-15 0 -9 7 -18 15 -21 8 -4 15 -15 15 -25 0 -11 7 -22 15 -25 8 -4 15 -12 15
-20 0 -8 7 -14 15 -14 8 0 15 -8 15 -19 0 -10 7 -24 15 -31 8 -7 15 -19 15
-26 0 -8 7 -14 15 -14 10 0 15 -10 15 -30 0 -20 5 -30 15 -30 10 0 15 -10 15
-30 0 -20 5 -30 15 -30 10 0 15 -10 15 -29 0 -16 6 -31 15 -35 10 -3 15 -19
15 -46 0 -29 4 -40 15 -40 11 0 15 -12 15 -44 0 -30 5 -46 15 -50 11 -4 15
-21 15 -64 0 -36 6 -66 15 -78 21 -28 22 -406 0 -457 -8 -20 -15 -54 -15 -75
0 -21 -7 -47 -15 -58 -8 -10 -15 -38 -15 -61 0 -31 -4 -43 -15 -43 -10 0 -15
-10 -15 -34 0 -18 -7 -39 -15 -46 -8 -7 -15 -25 -15 -41 0 -19 -5 -29 -15 -29
-10 0 -15 -10 -15 -30 0 -20 -5 -30 -15 -30 -8 0 -15 -8 -15 -19 0 -10 -7 -24
-15 -31 -8 -7 -15 -19 -15 -26 0 -8 -7 -14 -15 -14 -9 0 -15 -9 -15 -25 0 -14
-7 -28 -15 -31 -8 -4 -15 -12 -15 -20 0 -8 -7 -14 -15 -14 -8 0 -15 -6 -15
-14 0 -8 -7 -16 -15 -20 -8 -3 -15 -11 -15 -18 0 -8 -13 -28 -30 -46 -16 -18
-30 -37 -30 -43 0 -5 -7 -9 -15 -9 -8 0 -15 -7 -15 -15 0 -8 -4 -15 -9 -15 -6
0 -25 -13 -43 -30 -18 -16 -38 -30 -46 -30 -7 0 -15 -7 -18 -15 -4 -8 -12 -15
-20 -15 -8 0 -14 -7 -14 -15 0 -8 -6 -15 -14 -15 -8 0 -16 -7 -20 -15 -3 -8
-17 -15 -31 -15 -14 0 -25 -6 -25 -12 0 -7 -19 -22 -43 -33 -23 -11 -46 -25
-50 -32 -4 -7 -19 -13 -31 -13 -13 0 -26 -7 -30 -15 -3 -9 -18 -15 -35 -15
-16 0 -36 -7 -45 -15 -8 -8 -26 -15 -39 -15 -14 0 -27 -5 -29 -11 -2 -6 -28
-15 -58 -20 -30 -5 -56 -13 -58 -19 -2 -5 -29 -10 -61 -10 -35 0 -65 -6 -77
-15 -28 -21 -391 -22 -420 0 -11 8 -42 15 -74 15 -32 0 -63 7 -74 15 -11 8
-37 15 -58 15 -25 0 -41 5 -44 15 -4 8 -18 15 -33 15 -14 0 -35 7 -45 15 -11
8 -30 15 -43 15 -13 0 -26 7 -29 15 -4 8 -17 15 -30 15 -12 0 -27 6 -31 13 -4
6 -26 21 -48 32 -22 11 -43 24 -47 29 -3 5 -15 11 -24 12 -10 2 -24 10 -30 18
-6 9 -16 16 -23 16 -6 0 -11 7 -11 15 0 8 -7 15 -15 15 -8 0 -15 5 -15 11 0 5
-13 15 -30 20 -16 6 -30 15 -30 20 0 5 -7 9 -15 9 -8 0 -15 7 -15 15 0 8 -7
15 -15 15 -8 0 -15 7 -15 15 0 8 -7 15 -15 15 -8 0 -15 7 -15 15 0 8 -7 15
-15 15 -8 0 -15 7 -15 15 0 8 -4 15 -9 15 -10 0 -34 38 -47 73 -3 9 -13 17
-20 17 -8 0 -14 7 -14 15 0 8 -7 15 -15 15 -9 0 -15 9 -15 25 0 14 -7 28 -15
31 -8 4 -15 12 -15 19 0 7 -7 15 -15 19 -8 3 -15 17 -15 31 0 16 -6 25 -15 25
-10 0 -15 10 -15 30 0 20 -5 30 -15 30 -10 0 -15 10 -15 29 0 16 -6 31 -15 35
-10 3 -15 19 -15 46 0 29 -4 40 -15 40 -11 0 -15 12 -15 44 0 28 -5 46 -14 49
-9 4 -15 28 -18 72 -2 38 -9 70 -17 74 -18 11 -12 472 7 479 7 2 12 24 12 59
0 35 5 60 15 69 8 9 15 30 15 48 0 19 7 39 15 46 8 7 15 28 15 46 0 24 5 34
15 34 10 0 15 10 15 30 0 20 5 30 15 30 10 0 15 10 15 30 0 20 5 30 15 30 10
0 15 10 15 30 0 20 5 30 15 30 8 0 15 8 15 19 0 10 7 24 15 31 8 7 15 19 15
26 0 8 7 14 15 14 8 0 15 7 15 15 0 9 7 18 15 21 8 4 15 15 15 25 0 11 7 22
15 25 8 4 15 12 15 20 0 8 7 14 15 14 8 0 15 7 15 15 0 8 7 15 15 15 8 0 15 7
15 15 0 8 7 15 15 15 8 0 15 7 15 15 0 8 7 15 15 15 8 0 15 7 15 15 0 8 7 15
15 15 8 0 15 7 15 15 0 8 7 15 15 15 8 0 15 7 15 15 0 8 8 15 19 15 10 0 24 7
31 15 7 8 19 15 26 15 8 0 14 7 14 15 0 8 6 15 14 15 7 0 19 7 26 15 7 8 21
15 31 15 11 0 19 7 19 15 0 9 9 15 25 15 14 0 28 7 31 15 4 8 17 15 30 15 14
0 27 7 30 15 4 9 19 15 35 15 19 0 29 5 29 15 0 9 9 15 23 15 13 0 28 5 34 11
7 7 36 16 65 20 29 5 54 13 56 19 2 5 27 10 57 10 34 0 57 5 65 15 10 13 52
15 255 15 203 0 245 -2 255 -15z m-2280 -895 c19 -6 85 -13 145 -16 61 -3 124
-10 140 -16 17 -6 66 -13 110 -17 78 -6 80 -7 83 -33 2 -15 -4 -40 -12 -57 -9
-16 -16 -49 -16 -71 0 -23 -7 -63 -16 -90 -13 -40 -15 -85 -13 -239 3 -135 8
-194 17 -203 6 -6 12 -35 12 -62 0 -28 7 -64 15 -80 8 -15 15 -43 15 -60 0
-18 7 -41 15 -52 8 -10 15 -31 15 -45 0 -15 6 -32 14 -38 8 -7 17 -27 20 -46
4 -19 11 -35 16 -35 6 0 10 -11 10 -25 0 -14 7 -28 15 -31 8 -4 15 -17 15 -30
0 -12 6 -27 13 -31 6 -4 21 -26 32 -48 11 -22 25 -44 32 -48 7 -4 13 -17 13
-28 0 -11 7 -22 15 -25 8 -4 15 -12 15 -20 0 -8 6 -14 14 -14 8 0 17 -11 20
-25 4 -14 11 -25 16 -25 6 0 10 -7 10 -15 0 -9 7 -18 15 -21 8 -4 15 -12 15
-20 0 -8 7 -14 15 -14 8 0 15 -7 15 -15 0 -8 7 -15 15 -15 8 0 15 -7 15 -15 0
-8 7 -15 15 -15 8 0 15 -7 15 -15 0 -8 7 -15 15 -15 8 0 15 -7 15 -15 0 -8 7
-15 15 -15 8 0 15 -7 15 -15 0 -8 6 -15 13 -15 7 0 26 -13 42 -30 16 -16 35
-30 42 -30 8 0 16 -7 19 -15 4 -8 12 -15 19 -15 7 0 15 -7 19 -15 3 -8 15 -15
26 -15 11 0 23 -7 26 -15 4 -8 17 -15 31 -15 29 0 86 -37 78 -51 -4 -5 3 -9
13 -9 11 0 25 -7 32 -15 7 -8 22 -15 34 -15 11 0 30 -7 40 -15 11 -8 30 -15
42 -15 12 0 27 -7 34 -15 7 -8 27 -15 44 -15 17 0 40 -7 50 -15 11 -8 34 -15
51 -15 17 0 36 -5 42 -11 7 -7 47 -14 90 -17 43 -3 81 -9 84 -14 10 -16 255
-22 324 -8 33 6 94 15 135 19 41 4 85 13 97 19 12 7 35 12 50 12 16 0 38 7 49
15 10 8 34 15 52 15 20 0 35 6 38 15 4 8 18 15 34 15 16 0 35 6 42 14 8 7 29
17 46 21 18 3 32 10 32 13 0 4 25 18 55 31 30 14 55 28 55 33 0 4 9 8 20 8 11
0 20 6 20 13 0 6 20 21 45 32 25 11 45 25 45 32 0 7 5 13 11 13 6 0 16 6 24
13 27 25 51 43 68 50 9 3 17 11 17 17 0 5 7 10 15 10 8 0 15 7 15 15 0 8 7 15
15 15 8 0 15 7 15 15 0 10 10 15 30 15 20 0 30 -5 30 -15 0 -8 7 -15 15 -15 8
0 15 -5 15 -10 0 -12 41 -73 53 -78 4 -2 7 -10 7 -18 0 -8 7 -14 15 -14 8 0
15 -7 15 -15 0 -8 6 -15 14 -15 8 0 17 -11 20 -25 4 -14 11 -25 16 -25 6 0 10
-9 10 -20 0 -11 7 -20 15 -20 8 0 15 -6 15 -14 0 -8 7 -16 15 -20 8 -3 15 -15
15 -26 0 -11 7 -23 15 -26 8 -4 15 -12 15 -19 0 -7 7 -15 15 -19 8 -3 15 -15
15 -26 0 -11 7 -23 15 -26 8 -4 15 -12 15 -19 0 -7 7 -15 15 -19 8 -3 15 -15
15 -26 0 -11 7 -23 15 -26 8 -4 15 -12 15 -19 0 -7 7 -18 15 -25 8 -7 15 -21
15 -31 0 -11 7 -19 15 -19 9 0 15 -9 15 -25 0 -14 7 -28 15 -31 8 -4 15 -10
15 -15 0 -4 14 -28 30 -52 17 -25 30 -52 30 -61 0 -20 36 -92 50 -101 5 -3 10
-14 10 -25 0 -10 7 -20 15 -24 8 -3 15 -13 15 -21 0 -9 7 -23 15 -31 8 -9 15
-26 15 -39 0 -13 7 -30 15 -39 8 -8 15 -24 15 -35 0 -11 7 -26 15 -35 8 -8 15
-26 15 -39 0 -14 6 -27 14 -30 7 -3 16 -24 20 -46 3 -23 11 -41 16 -41 6 0 10
-13 10 -29 0 -16 7 -34 15 -41 37 -31 -7 -69 -97 -84 -21 -4 -38 -11 -38 -16
0 -6 -13 -10 -29 -10 -16 0 -31 -6 -35 -15 -3 -8 -16 -15 -30 -15 -14 0 -31
-7 -40 -15 -8 -8 -21 -15 -30 -15 -8 0 -21 -6 -28 -13 -7 -8 -26 -17 -41 -21
-15 -3 -27 -11 -27 -16 0 -6 -9 -10 -20 -10 -11 0 -20 -7 -20 -15 0 -8 -8 -15
-19 -15 -10 0 -24 -7 -31 -15 -7 -8 -19 -15 -26 -15 -8 0 -14 -6 -14 -14 0 -8
-11 -17 -25 -20 -14 -4 -25 -11 -25 -16 0 -6 -7 -10 -15 -10 -9 0 -18 -7 -21
-15 -4 -8 -12 -15 -20 -15 -8 0 -14 -7 -14 -15 0 -8 -7 -15 -15 -15 -8 0 -15
-7 -15 -15 0 -8 -7 -15 -15 -15 -8 0 -15 -7 -15 -15 0 -8 -7 -15 -15 -15 -8 0
-15 -7 -15 -15 0 -8 -7 -15 -15 -15 -8 0 -15 -7 -15 -15 0 -8 -7 -15 -15 -15
-8 0 -15 -7 -15 -15 0 -8 -7 -15 -15 -15 -8 0 -15 -6 -15 -14 0 -8 -7 -16 -15
-20 -8 -3 -15 -12 -15 -21 0 -8 -4 -15 -10 -15 -5 0 -12 -11 -16 -25 -3 -14
-12 -25 -20 -25 -8 0 -14 -6 -14 -14 0 -8 -7 -16 -15 -20 -8 -3 -15 -15 -15
-26 0 -11 -7 -23 -15 -26 -8 -4 -15 -15 -15 -25 0 -10 -4 -19 -10 -19 -5 0
-12 -11 -16 -25 -3 -14 -10 -25 -14 -25 -5 0 -11 -13 -15 -30 -4 -16 -11 -30
-15 -30 -5 0 -12 -16 -16 -35 -3 -19 -12 -39 -20 -46 -8 -6 -14 -24 -14 -39 0
-16 -5 -30 -10 -32 -6 -2 -13 -21 -17 -43 -3 -22 -11 -43 -16 -46 -5 -4 -12
-31 -15 -60 -2 -30 -9 -60 -15 -67 -13 -16 -30 -201 -29 -322 0 -127 17 -321
29 -328 6 -4 12 -31 15 -61 3 -29 10 -56 15 -60 5 -3 13 -24 16 -46 4 -22 11
-41 17 -43 5 -2 10 -16 10 -32 0 -15 6 -33 14 -39 8 -7 17 -27 20 -46 4 -19
11 -35 16 -35 4 0 11 -14 15 -30 4 -17 10 -30 15 -30 4 0 11 -11 14 -25 4 -14
11 -25 16 -25 6 0 10 -9 10 -19 0 -10 7 -21 15 -25 8 -3 15 -15 15 -26 0 -11
7 -23 15 -26 8 -4 15 -12 15 -20 0 -8 6 -14 14 -14 8 0 17 -11 20 -25 4 -14
11 -25 16 -25 6 0 10 -7 10 -15 0 -9 7 -18 15 -21 8 -4 15 -12 15 -20 0 -8 7
-14 15 -14 8 0 15 -7 15 -15 0 -8 7 -15 15 -15 8 0 15 -7 15 -15 0 -8 7 -15
15 -15 8 0 15 -7 15 -15 0 -8 7 -15 15 -15 8 0 15 -7 15 -15 0 -8 7 -15 15
-15 8 0 15 -7 15 -15 0 -8 7 -15 15 -15 8 0 15 -7 15 -15 0 -8 6 -15 14 -15 8
0 16 -7 20 -15 3 -8 12 -15 21 -15 8 0 15 -4 15 -10 0 -5 11 -12 25 -16 14 -3
25 -12 25 -20 0 -8 6 -14 14 -14 7 0 19 -7 26 -15 7 -8 21 -15 31 -15 11 0 19
-7 19 -15 0 -8 8 -15 19 -15 10 0 24 -7 31 -15 7 -8 19 -15 27 -15 8 0 21 -7
29 -15 9 -8 24 -15 35 -15 10 0 19 -4 19 -10 0 -5 18 -14 40 -20 22 -6 40 -15
40 -20 0 -6 12 -10 28 -10 15 0 36 -7 46 -15 11 -8 29 -15 40 -15 32 0 95 -34
96 -51 0 -9 -7 -22 -15 -29 -8 -7 -15 -25 -15 -41 0 -16 -4 -29 -10 -29 -5 0
-13 -18 -16 -41 -4 -22 -13 -43 -20 -46 -8 -3 -14 -16 -14 -30 0 -13 -7 -31
-15 -39 -8 -9 -15 -24 -15 -35 0 -11 -7 -27 -15 -35 -8 -9 -15 -24 -15 -33 0
-10 -7 -24 -15 -31 -8 -7 -15 -23 -15 -37 0 -13 -7 -26 -15 -29 -8 -4 -15 -17
-15 -30 0 -14 -7 -27 -15 -30 -8 -4 -15 -17 -15 -30 0 -14 -7 -27 -15 -30 -8
-4 -15 -14 -15 -24 0 -10 -7 -23 -15 -30 -8 -7 -15 -21 -15 -31 0 -11 -4 -19
-10 -19 -5 0 -12 -11 -16 -24 -3 -14 -12 -27 -20 -30 -8 -3 -14 -17 -14 -31 0
-16 -6 -25 -15 -25 -8 0 -15 -9 -15 -20 0 -11 -4 -20 -10 -20 -5 0 -12 -11
-16 -24 -3 -14 -12 -27 -20 -30 -8 -3 -14 -15 -14 -26 0 -11 -7 -23 -15 -26
-8 -4 -15 -10 -15 -16 0 -5 -7 -16 -15 -24 -8 -9 -15 -24 -15 -35 0 -10 -7
-19 -15 -19 -8 0 -15 -6 -15 -14 0 -8 -7 -16 -15 -20 -8 -3 -15 -15 -15 -26 0
-11 -7 -23 -15 -26 -8 -4 -15 -12 -15 -20 0 -8 -7 -14 -15 -14 -8 0 -15 -7
-15 -15 0 -16 -8 -27 -42 -66 -10 -10 -18 -23 -18 -29 0 -5 -7 -10 -15 -10 -8
0 -15 -7 -15 -15 0 -8 -4 -15 -9 -15 -10 0 -34 -38 -47 -72 -3 -10 -13 -18
-20 -18 -8 0 -14 -7 -14 -15 0 -10 -10 -15 -30 -15 -20 0 -30 5 -30 15 0 8 -7
15 -15 15 -8 0 -15 7 -15 15 0 8 -7 15 -15 15 -8 0 -15 5 -15 10 0 6 -8 14
-17 17 -19 7 -32 17 -64 45 -10 10 -23 18 -29 18 -5 0 -10 7 -10 15 0 8 -9 15
-20 15 -11 0 -20 4 -20 10 0 5 -11 12 -25 16 -14 3 -25 12 -25 20 0 8 -9 14
-20 14 -11 0 -20 4 -20 10 0 5 -12 13 -27 16 -15 4 -34 13 -41 21 -7 7 -20 13
-28 13 -8 0 -14 4 -14 9 0 5 -14 13 -32 16 -17 4 -38 14 -46 21 -7 8 -26 14
-42 14 -16 0 -30 7 -34 15 -3 10 -19 15 -45 15 -22 0 -41 4 -43 10 -1 5 -28
15 -58 21 -30 6 -73 15 -95 20 -22 4 -57 8 -77 9 -21 0 -38 5 -38 10 0 14 -33
13 -47 -1 -9 -9 -19 -9 -41 0 -51 21 -471 -2 -480 -26 -2 -7 -19 -13 -37 -13
-18 0 -52 -9 -76 -19 -24 -11 -47 -17 -51 -15 -5 3 -11 -2 -14 -10 -3 -9 -17
-16 -30 -16 -13 0 -41 -9 -61 -20 -21 -11 -43 -20 -50 -20 -7 0 -13 -4 -13
-10 0 -5 -9 -10 -19 -10 -11 0 -26 -6 -33 -14 -8 -7 -24 -17 -36 -20 -12 -4
-22 -12 -22 -17 0 -5 -9 -9 -20 -9 -11 0 -20 -6 -20 -12 0 -7 -20 -22 -45 -33
-25 -11 -45 -25 -45 -32 0 -7 -5 -13 -10 -13 -14 0 -110 -72 -110 -82 0 -4 -7
-8 -15 -8 -8 0 -15 -7 -15 -15 0 -8 -7 -15 -15 -15 -8 0 -15 -7 -15 -15 0 -8
-7 -15 -15 -15 -8 0 -15 -7 -15 -15 0 -8 -7 -15 -15 -15 -8 0 -15 -7 -15 -15
0 -8 -7 -15 -15 -15 -8 0 -15 -6 -15 -14 0 -8 -7 -16 -15 -20 -8 -3 -15 -12
-15 -21 0 -8 -4 -15 -10 -15 -5 0 -12 -11 -16 -25 -3 -14 -12 -25 -20 -25 -8
0 -14 -6 -14 -14 0 -8 -7 -16 -15 -20 -8 -3 -15 -14 -15 -25 0 -11 -6 -24 -13
-28 -7 -4 -21 -26 -32 -48 -11 -22 -26 -44 -32 -48 -7 -4 -13 -19 -13 -31 0
-13 -7 -26 -15 -30 -8 -3 -15 -17 -15 -31 0 -14 -4 -25 -10 -25 -5 0 -10 -14
-10 -30 0 -18 -8 -37 -20 -47 -12 -11 -20 -30 -20 -49 0 -17 -7 -37 -15 -44
-8 -7 -15 -22 -15 -34 -1 -11 -7 -32 -15 -46 -9 -15 -14 -53 -15 -97 0 -46 -4
-73 -12 -75 -17 -6 -24 -336 -8 -408 6 -30 15 -82 19 -115 4 -33 12 -70 19
-83 7 -13 12 -35 10 -50 -3 -26 -5 -27 -83 -33 -44 -4 -93 -11 -110 -17 -16
-6 -79 -13 -140 -15 -60 -3 -123 -10 -138 -16 -46 -18 -675 -15 -762 4 -39 8
-105 15 -147 15 -42 0 -89 5 -105 12 -15 6 -64 14 -108 17 -78 6 -80 7 -83 33
-2 15 3 37 10 50 7 13 15 50 19 83 4 33 13 85 19 115 15 70 10 398 -6 408 -7
4 -13 38 -16 76 -2 42 -9 71 -16 74 -7 2 -12 22 -12 46 0 23 -7 51 -15 62 -8
10 -15 31 -15 45 0 15 -7 32 -15 39 -8 7 -15 23 -15 36 0 12 -7 29 -15 38 -8
8 -15 24 -15 36 0 11 -7 23 -15 26 -8 4 -15 17 -15 30 0 12 -6 27 -12 31 -7 4
-22 26 -33 48 -11 22 -25 44 -32 48 -7 4 -13 17 -13 28 0 11 -7 22 -15 25 -8
4 -15 12 -15 20 0 8 -6 14 -14 14 -8 0 -17 11 -20 25 -4 14 -11 25 -16 25 -6
0 -10 7 -10 15 0 9 -7 18 -15 21 -8 4 -15 12 -15 20 0 8 -7 14 -15 14 -8 0
-15 7 -15 15 0 8 -7 15 -15 15 -8 0 -15 7 -15 15 0 8 -7 15 -15 15 -8 0 -15 7
-15 15 0 8 -7 15 -15 15 -8 0 -15 7 -15 15 0 8 -6 15 -14 15 -8 0 -16 4 -18 9
-4 12 -96 81 -108 81 -6 0 -10 6 -10 13 0 7 -20 21 -45 32 -25 11 -45 26 -45
33 0 6 -9 12 -20 12 -11 0 -20 4 -20 8 0 5 -25 19 -55 33 -30 13 -55 27 -55
31 0 3 -14 10 -32 13 -17 4 -38 14 -46 21 -7 8 -26 14 -42 14 -16 0 -30 7 -34
15 -3 9 -18 15 -38 15 -18 0 -42 7 -52 15 -11 8 -32 15 -47 15 -14 0 -43 7
-62 15 -20 8 -63 15 -95 15 -33 0 -63 5 -71 13 -9 9 -60 12 -186 12 -126 0
-177 -3 -186 -12 -8 -8 -39 -13 -76 -13 -34 0 -77 -6 -95 -14 -18 -8 -50 -18
-70 -21 -21 -3 -38 -10 -38 -15 0 -6 -18 -10 -40 -10 -27 0 -43 -5 -46 -15 -4
-8 -18 -15 -34 -15 -16 0 -35 -6 -42 -14 -8 -7 -29 -17 -46 -21 -18 -3 -32
-11 -32 -16 0 -5 -6 -9 -14 -9 -8 0 -21 -6 -28 -13 -7 -8 -26 -17 -41 -21 -15
-3 -27 -11 -27 -16 0 -6 -9 -10 -20 -10 -11 0 -20 -6 -20 -14 0 -8 -11 -17
-25 -20 -14 -4 -25 -11 -25 -16 0 -6 -9 -10 -20 -10 -11 0 -20 -7 -20 -15 0
-8 -6 -15 -12 -15 -7 0 -26 -13 -43 -28 -16 -15 -38 -31 -47 -35 -10 -3 -18
-11 -18 -17 0 -5 -7 -10 -15 -10 -8 0 -15 -7 -15 -15 0 -8 -7 -15 -15 -15 -8
0 -15 -7 -15 -15 0 -10 -10 -15 -30 -15 -20 0 -30 5 -30 15 0 8 -6 15 -14 15
-7 0 -17 8 -20 18 -13 34 -37 72 -47 72 -5 0 -9 7 -9 15 0 8 -7 15 -15 15 -8
0 -15 7 -15 15 0 8 -6 15 -14 15 -8 0 -17 11 -20 25 -4 14 -11 25 -16 25 -6 0
-10 9 -10 20 0 11 -7 20 -15 20 -8 0 -15 6 -15 14 0 8 -7 16 -15 20 -8 3 -15
15 -15 26 0 11 -7 23 -15 26 -8 4 -15 12 -15 20 0 8 -7 14 -15 14 -9 0 -15 9
-15 25 0 14 -7 28 -15 31 -8 4 -15 12 -15 19 0 7 -7 15 -15 19 -8 3 -15 15
-15 26 0 11 -7 23 -15 26 -8 4 -15 12 -15 19 0 7 -7 18 -15 25 -8 7 -15 21
-15 31 0 11 -7 19 -15 19 -9 0 -15 9 -15 25 0 14 -6 28 -14 31 -8 3 -17 16
-20 30 -4 13 -11 24 -16 24 -6 0 -10 8 -10 19 0 10 -7 24 -15 31 -8 7 -15 19
-15 27 0 8 -7 21 -15 29 -8 9 -15 24 -15 34 0 10 -7 20 -15 24 -8 3 -15 16
-15 30 0 13 -7 26 -15 30 -8 3 -15 16 -15 29 0 14 -7 30 -15 37 -8 7 -15 21
-15 31 0 9 -7 24 -15 33 -8 8 -15 24 -15 35 0 11 -7 26 -15 35 -8 8 -15 26
-15 39 0 14 -6 27 -14 30 -7 3 -16 24 -20 46 -3 23 -11 41 -16 41 -6 0 -10 13
-10 29 0 16 -7 34 -15 41 -37 31 7 69 97 84 21 4 38 11 38 16 0 6 13 10 29 10
16 0 31 6 35 15 3 8 16 15 30 15 14 0 31 7 40 15 8 8 21 15 30 15 8 0 21 6 28
13 7 8 26 17 41 21 15 3 27 11 27 16 0 6 9 10 20 10 11 0 20 7 20 15 0 8 8 15
19 15 10 0 24 7 31 15 7 8 19 15 26 15 8 0 14 6 14 14 0 8 11 17 25 20 14 4
25 11 25 16 0 6 7 10 15 10 9 0 18 7 21 15 4 8 12 15 20 15 8 0 14 7 14 15 0
8 7 15 15 15 8 0 15 7 15 15 0 8 7 15 15 15 8 0 15 7 15 15 0 8 7 15 15 15 8
0 15 7 15 15 0 8 7 15 15 15 8 0 15 7 15 15 0 8 7 15 15 15 8 0 15 7 15 15 0
8 7 15 15 15 8 0 15 6 15 14 0 8 7 16 15 20 8 3 15 12 15 21 0 8 4 15 10 15 5
0 12 11 16 25 3 14 12 25 20 25 8 0 14 6 14 14 0 8 7 16 15 20 8 3 15 17 15
31 0 16 6 25 15 25 8 0 15 9 15 20 0 11 4 20 10 20 5 0 12 11 16 25 3 14 10
25 14 25 5 0 11 13 15 30 4 17 11 30 15 30 5 0 12 16 16 35 3 19 12 39 20 46
8 6 14 24 14 39 0 16 5 30 10 32 6 2 13 21 17 43 3 22 11 43 16 46 5 4 12 31
15 60 2 30 9 60 15 67 13 16 30 199 30 322 0 115 -18 307 -30 322 -6 7 -13 37
-15 67 -3 29 -10 56 -15 60 -5 3 -13 24 -16 46 -4 22 -11 41 -17 43 -5 2 -10
16 -10 32 0 15 -6 33 -14 39 -8 7 -17 27 -20 46 -4 19 -11 35 -16 35 -4 0 -11
14 -15 30 -4 17 -10 30 -15 30 -4 0 -11 11 -14 25 -4 14 -11 25 -16 25 -6 0
-10 9 -10 20 0 11 -7 20 -15 20 -9 0 -15 9 -15 25 0 14 -7 28 -15 31 -8 4 -15
12 -15 20 0 8 -6 14 -14 14 -8 0 -17 11 -20 25 -4 14 -11 25 -16 25 -6 0 -10
7 -10 15 0 9 -7 18 -15 21 -8 4 -15 12 -15 20 0 8 -7 14 -15 14 -8 0 -15 7
-15 15 0 8 -7 15 -15 15 -8 0 -15 7 -15 15 0 8 -7 15 -15 15 -8 0 -15 7 -15
15 0 8 -7 15 -15 15 -8 0 -15 7 -15 15 0 8 -7 15 -15 15 -8 0 -15 7 -15 15 0
8 -7 15 -15 15 -8 0 -15 7 -15 15 0 8 -6 15 -14 15 -8 0 -16 7 -20 15 -3 8
-12 15 -21 15 -8 0 -15 4 -15 10 0 5 -11 12 -25 16 -14 3 -25 12 -25 20 0 8
-6 14 -14 14 -7 0 -19 7 -26 15 -7 8 -21 15 -31 15 -11 0 -19 7 -19 15 0 8 -9
15 -20 15 -11 0 -20 4 -20 10 0 5 -12 13 -27 16 -15 4 -34 13 -41 21 -7 7 -22
13 -33 13 -10 0 -19 4 -19 10 0 5 -18 14 -40 20 -22 6 -40 15 -40 20 0 6 -12
10 -27 10 -16 0 -37 7 -47 15 -11 8 -29 15 -40 15 -32 0 -95 34 -96 51 0 9 7
22 15 29 8 7 15 25 15 41 0 16 4 29 10 29 5 0 13 18 16 41 4 22 13 43 20 46 8
3 14 16 14 30 0 13 7 31 15 39 8 9 15 24 15 35 0 11 7 27 15 35 8 9 15 24 15
33 0 10 7 24 15 31 8 7 15 23 15 37 0 13 7 26 15 29 8 4 15 17 15 30 0 14 7
27 15 30 8 4 15 17 15 30 0 14 7 27 15 30 8 4 15 14 15 24 0 10 7 23 15 30 8
7 15 21 15 31 0 11 4 19 10 19 5 0 12 11 16 24 3 14 12 27 20 30 8 3 14 17 14
31 0 16 6 25 15 25 8 0 15 8 15 19 0 10 7 24 15 31 8 7 15 18 15 25 0 7 7 15
15 19 8 3 15 15 15 26 0 11 7 23 15 26 8 4 15 13 15 20 0 8 7 17 15 20 8 4 15
17 15 30 0 15 6 24 15 24 8 0 15 6 15 14 0 8 7 16 15 20 8 3 15 15 15 26 0 11
7 23 15 26 8 4 15 12 15 20 0 8 7 14 15 14 8 0 15 7 15 15 0 16 8 27 43 66 9
10 17 24 17 29 0 6 7 10 15 10 8 0 15 5 15 11 0 6 14 28 30 49 17 21 30 43 30
49 0 6 7 11 15 11 8 0 15 7 15 15 0 10 10 15 30 15 20 0 30 -5 30 -15 0 -8 7
-15 15 -15 8 0 15 -7 15 -15 0 -8 6 -15 14 -15 8 0 16 -7 20 -15 3 -8 10 -15
16 -15 11 0 24 -9 61 -42 10 -10 23 -18 29 -18 5 0 10 -7 10 -15 0 -8 9 -15
20 -15 11 0 20 -4 20 -10 0 -5 11 -12 25 -16 14 -3 25 -12 25 -20 0 -8 9 -14
20 -14 11 0 20 -4 20 -8 0 -5 25 -19 55 -33 30 -13 55 -27 55 -31 0 -3 14 -10
32 -13 17 -4 38 -14 46 -21 7 -8 26 -14 42 -14 16 0 30 -7 34 -15 3 -9 18 -15
38 -15 18 0 42 -7 52 -15 11 -8 34 -15 50 -15 17 -1 42 -7 56 -15 14 -8 53
-14 91 -15 36 0 70 -5 76 -11 16 -16 258 -23 328 -9 33 6 95 15 138 19 42 4
83 13 89 19 7 7 26 12 43 12 17 0 40 7 51 15 10 8 33 15 50 15 17 0 37 7 44
15 7 8 23 15 36 15 12 0 29 6 36 14 8 7 29 17 46 21 18 3 32 10 32 13 0 4 25
18 55 31 30 14 55 28 55 33 0 4 9 8 20 8 11 0 20 6 20 13 0 6 20 21 45 32 25
11 45 25 45 32 0 7 5 13 11 13 6 0 28 14 49 30 21 17 43 30 49 30 6 0 11 7 11
15 0 8 7 15 15 15 8 0 15 7 15 15 0 8 7 15 15 15 8 0 15 7 15 15 0 8 7 15 15
15 8 0 15 7 15 15 0 8 7 15 15 15 8 0 15 7 15 15 0 8 7 15 15 15 8 0 15 6 15
14 0 8 7 16 15 20 8 3 15 12 15 21 0 8 4 15 10 15 5 0 12 11 16 25 3 14 12 25
20 25 8 0 14 6 14 14 0 8 7 16 15 20 8 3 15 15 15 26 0 11 7 23 15 26 8 4 15
15 15 25 0 10 4 19 10 19 5 0 12 11 16 24 3 14 12 27 20 30 8 3 14 16 14 30 0
13 7 26 15 30 8 3 15 15 15 26 0 12 7 28 15 36 8 9 15 26 15 38 0 13 7 29 15
36 8 7 15 24 15 39 0 14 7 35 15 45 8 11 15 39 15 62 0 23 5 44 12 46 6 2 13
32 16 69 2 35 9 70 16 78 16 20 21 342 6 411 -6 30 -15 83 -19 117 -5 35 -14
69 -20 77 -7 8 -11 30 -9 48 l3 33 80 6 c44 4 94 11 110 17 17 6 80 13 140 15
61 3 121 10 135 16 34 13 684 14 730 1z m-5023 -3215 c20 -9 67 -15 112 -15
51 -1 82 -5 95 -15 11 -8 39 -15 62 -15 28 0 44 -5 48 -15 3 -10 19 -15 46
-15 29 0 40 -4 40 -15 0 -9 10 -15 26 -15 23 0 50 -11 104 -41 8 -5 36 -19 62
-31 26 -13 48 -29 48 -35 0 -7 11 -13 25 -13 14 0 28 -7 31 -15 4 -8 12 -15
20 -15 8 0 14 -6 14 -14 0 -7 8 -17 18 -20 34 -13 72 -37 72 -47 0 -5 7 -9 15
-9 8 0 15 -7 15 -15 0 -8 7 -15 15 -15 8 0 15 -7 15 -15 0 -8 7 -15 15 -15 8
0 15 -7 15 -15 0 -8 7 -15 15 -15 8 0 15 -7 15 -15 0 -8 7 -15 15 -15 8 0 15
-7 15 -15 0 -8 4 -15 9 -15 10 0 34 -38 47 -72 3 -10 13 -18 20 -18 8 0 14 -7
14 -15 0 -8 7 -15 15 -15 10 0 15 -10 15 -30 0 -20 5 -30 15 -30 8 0 15 -6 15
-14 0 -7 7 -19 15 -26 8 -7 15 -20 15 -30 0 -10 7 -20 15 -24 8 -3 15 -16 15
-29 0 -14 7 -30 15 -37 8 -7 15 -26 15 -42 0 -16 6 -31 15 -34 9 -4 15 -19 15
-39 0 -18 7 -38 15 -45 9 -7 15 -29 15 -52 0 -22 7 -46 15 -54 11 -11 15 -37
15 -94 0 -54 4 -80 12 -82 21 -7 24 -238 4 -279 -10 -21 -16 -58 -16 -105 0
-51 -4 -77 -15 -88 -8 -8 -15 -32 -15 -53 0 -21 -7 -47 -15 -57 -8 -11 -15
-32 -15 -47 0 -15 -7 -29 -15 -33 -9 -3 -15 -18 -15 -34 0 -16 -7 -35 -15 -42
-8 -7 -15 -23 -15 -37 0 -13 -7 -26 -15 -29 -8 -4 -15 -14 -15 -24 0 -10 -7
-23 -15 -30 -8 -7 -15 -19 -15 -26 0 -8 -7 -14 -15 -14 -10 0 -15 -10 -15 -30
0 -20 -5 -30 -15 -30 -8 0 -15 -7 -15 -15 0 -8 -6 -15 -14 -15 -7 0 -17 -8
-20 -17 -13 -35 -37 -73 -47 -73 -5 0 -9 -7 -9 -15 0 -8 -7 -15 -15 -15 -8 0
-15 -7 -15 -15 0 -8 -7 -15 -15 -15 -8 0 -15 -7 -15 -15 0 -8 -7 -15 -15 -15
-8 0 -15 -7 -15 -15 0 -8 -7 -15 -15 -15 -8 0 -15 -7 -15 -15 0 -8 -6 -15 -14
-15 -8 0 -16 -7 -20 -15 -3 -8 -11 -15 -18 -15 -8 0 -28 -13 -46 -30 -18 -16
-37 -30 -42 -30 -4 0 -10 -7 -14 -15 -3 -8 -17 -15 -31 -15 -16 0 -25 -6 -25
-15 0 -8 -9 -15 -19 -15 -11 0 -23 -5 -26 -11 -4 -5 -17 -14 -28 -20 -12 -5
-29 -13 -37 -17 -52 -29 -85 -42 -106 -42 -15 0 -24 -6 -24 -15 0 -11 -11 -15
-40 -15 -27 0 -43 -5 -46 -15 -4 -10 -20 -15 -48 -15 -23 0 -51 -7 -62 -15
-13 -10 -44 -14 -95 -15 -45 0 -92 -6 -112 -15 -47 -19 -152 -19 -207 0 -23 8
-76 15 -117 15 -53 0 -79 4 -89 15 -10 9 -34 15 -65 15 -37 0 -49 4 -49 15 0
11 -12 15 -45 15 -33 0 -45 4 -45 15 0 9 -10 15 -26 15 -14 0 -32 7 -40 15 -9
8 -24 15 -33 15 -10 0 -24 7 -31 15 -7 8 -20 15 -30 15 -10 0 -20 7 -24 15 -3
8 -17 15 -31 15 -16 0 -25 6 -25 15 0 8 -8 15 -19 15 -10 0 -24 7 -31 15 -7 8
-19 15 -26 15 -8 0 -14 7 -14 15 0 8 -7 15 -15 15 -8 0 -15 7 -15 15 0 8 -8
15 -18 15 -10 0 -32 14 -50 30 -18 17 -37 30 -43 30 -5 0 -9 7 -9 15 0 8 -7
15 -15 15 -8 0 -15 7 -15 15 0 8 -7 15 -15 15 -8 0 -15 6 -15 14 0 8 -7 16
-15 20 -8 3 -15 12 -15 21 0 8 -4 15 -10 15 -5 0 -12 11 -16 25 -3 14 -12 25
-20 25 -8 0 -14 7 -14 15 0 8 -7 15 -15 15 -8 0 -15 6 -15 14 0 7 -7 19 -15
26 -8 7 -15 21 -15 31 0 11 -7 19 -15 19 -9 0 -15 9 -15 25 0 14 -7 28 -15 31
-8 4 -15 14 -15 24 0 10 -7 25 -15 34 -8 8 -15 24 -15 36 0 11 -7 23 -15 26
-8 4 -15 18 -15 34 0 16 -7 30 -15 34 -10 3 -15 19 -15 45 0 25 -5 41 -15 45
-11 4 -15 21 -15 60 0 37 -4 56 -14 59 -36 14 -36 580 0 594 10 3 14 22 14 59
0 39 4 56 15 60 10 4 15 20 15 45 0 26 5 42 15 45 8 4 15 18 15 34 0 16 7 30
15 34 8 3 15 15 15 26 0 12 7 28 15 36 8 9 15 24 15 34 0 10 7 20 15 24 8 3
15 17 15 31 0 16 6 25 15 25 8 0 15 8 15 19 0 10 7 24 15 31 8 7 15 19 15 26
0 8 7 14 15 14 8 0 15 7 15 15 0 8 6 15 14 15 8 0 17 11 20 25 4 14 11 25 16
25 6 0 10 7 10 15 0 9 7 18 15 21 8 4 15 12 15 20 0 8 7 14 15 14 8 0 15 7 15
15 0 8 7 15 15 15 8 0 15 7 15 15 0 8 6 15 14 15 8 0 16 7 20 15 3 8 12 15 21
15 8 0 15 4 15 10 0 5 11 12 25 16 14 3 25 12 25 20 0 8 7 14 15 14 8 0 15 7
15 15 0 8 6 15 14 15 7 0 19 7 26 15 7 8 21 15 31 15 11 0 19 7 19 15 0 9 9
15 25 15 14 0 28 7 31 15 4 8 14 15 24 15 10 0 23 7 30 15 7 8 21 15 31 15 9
0 24 7 33 15 8 8 26 15 40 15 16 0 26 6 26 15 0 11 12 15 45 15 32 0 45 4 45
14 0 9 18 15 57 18 31 3 59 10 61 16 2 8 33 12 85 13 45 0 98 7 117 14 48 18
162 18 207 0z m9550 -4 c12 -6 56 -11 98 -11 55 0 81 -4 91 -15 10 -9 34 -15
65 -15 37 0 49 -4 49 -15 0 -11 12 -15 45 -15 33 0 45 -4 45 -15 0 -10 10 -15
29 -15 16 0 34 -7 41 -15 7 -8 20 -15 30 -15 10 0 23 -7 30 -15 7 -8 20 -15
30 -15 10 0 20 -7 24 -15 3 -8 17 -15 31 -15 16 0 25 -6 25 -15 0 -8 8 -15 19
-15 10 0 24 -7 31 -15 7 -8 19 -15 26 -15 8 0 14 -7 14 -15 0 -8 7 -15 15 -15
8 0 15 -7 15 -15 0 -8 8 -15 18 -15 10 0 32 -13 50 -30 18 -16 37 -30 43 -30
5 0 9 -7 9 -15 0 -8 7 -15 15 -15 8 0 15 -7 15 -15 0 -8 7 -15 15 -15 8 0 15
-4 15 -9 0 -6 11 -22 25 -37 14 -15 28 -38 31 -51 4 -13 12 -23 20 -23 8 0 14
-7 14 -15 0 -8 7 -15 15 -15 8 0 15 -6 15 -14 0 -7 7 -19 15 -26 8 -7 15 -21
15 -31 0 -11 7 -19 15 -19 10 0 15 -10 15 -30 0 -20 5 -30 15 -30 8 0 15 -9
15 -19 0 -11 7 -26 15 -35 8 -8 15 -24 15 -36 0 -11 7 -23 15 -26 8 -4 15 -18
15 -34 0 -16 7 -30 15 -34 10 -3 15 -19 15 -45 0 -25 5 -41 15 -45 11 -4 15
-21 15 -61 0 -40 4 -55 14 -55 35 0 36 -583 0 -597 -10 -3 -14 -22 -14 -59 0
-39 -4 -56 -15 -60 -10 -4 -15 -20 -15 -45 0 -26 -5 -42 -15 -45 -8 -4 -15
-18 -15 -34 0 -16 -7 -30 -15 -34 -8 -3 -15 -16 -15 -29 0 -14 -7 -30 -15 -37
-8 -7 -15 -20 -15 -30 0 -10 -7 -20 -15 -24 -8 -3 -15 -17 -15 -31 0 -16 -6
-25 -15 -25 -8 0 -15 -8 -15 -19 0 -10 -7 -24 -15 -31 -8 -7 -15 -19 -15 -26
0 -8 -7 -14 -15 -14 -8 0 -15 -7 -15 -15 0 -8 -6 -15 -14 -15 -7 0 -17 -8 -20
-17 -13 -35 -37 -73 -47 -73 -5 0 -9 -7 -9 -15 0 -8 -7 -15 -15 -15 -8 0 -15
-7 -15 -15 0 -8 -7 -15 -15 -15 -8 0 -15 -7 -15 -15 0 -8 -6 -15 -14 -15 -8 0
-16 -6 -19 -13 -2 -7 -23 -22 -46 -32 -22 -11 -41 -26 -41 -32 0 -7 -7 -13
-15 -13 -8 0 -15 -7 -15 -15 0 -8 -6 -15 -14 -15 -7 0 -19 -7 -26 -15 -7 -8
-21 -15 -31 -15 -11 0 -19 -7 -19 -15 0 -9 -9 -15 -25 -15 -14 0 -28 -7 -31
-15 -4 -8 -14 -15 -24 -15 -10 0 -23 -7 -30 -15 -7 -8 -20 -15 -30 -15 -10 0
-23 -7 -30 -15 -7 -8 -25 -15 -41 -15 -19 0 -29 -5 -29 -15 0 -11 -12 -15 -45
-15 -33 0 -45 -4 -45 -15 0 -11 -12 -15 -49 -15 -31 0 -55 -6 -65 -15 -10 -11
-37 -15 -94 -15 -48 0 -94 -6 -115 -15 -47 -19 -164 -19 -210 0 -21 9 -68 15
-109 15 -48 1 -80 6 -92 15 -11 8 -39 15 -62 15 -28 0 -44 5 -48 15 -3 10 -19
15 -46 15 -29 0 -40 4 -40 15 0 10 -10 15 -34 15 -18 0 -39 7 -46 15 -7 8 -20
15 -30 15 -10 0 -23 7 -30 15 -7 8 -18 15 -25 15 -7 0 -18 7 -25 15 -7 8 -21
15 -31 15 -11 0 -19 7 -19 15 0 10 -10 15 -30 15 -20 0 -30 5 -30 15 0 8 -7
15 -15 15 -8 0 -15 6 -15 14 0 7 -8 17 -17 20 -35 13 -73 37 -73 47 0 5 -7 9
-15 9 -8 0 -15 7 -15 15 0 8 -7 15 -15 15 -8 0 -15 7 -15 15 0 8 -7 15 -15 15
-8 0 -15 7 -15 15 0 8 -7 15 -15 15 -8 0 -15 7 -15 15 0 8 -7 15 -15 15 -8 0
-15 7 -15 15 0 8 -4 15 -9 15 -10 0 -34 38 -47 73 -3 9 -13 17 -20 17 -8 0
-14 7 -14 15 0 8 -7 15 -15 15 -10 0 -15 10 -15 30 0 20 -5 30 -15 30 -8 0
-15 6 -15 14 0 7 -7 19 -15 26 -8 7 -15 20 -15 30 0 10 -7 20 -15 24 -8 3 -15
16 -15 29 0 14 -7 30 -15 37 -8 7 -15 26 -15 42 0 16 -6 31 -15 34 -9 4 -15
19 -15 39 0 18 -7 38 -15 45 -9 7 -15 29 -15 52 0 22 -7 46 -15 54 -11 11 -15
37 -15 90 0 51 -5 82 -16 99 -13 19 -15 48 -12 151 2 91 7 129 16 132 8 2 12
28 12 82 0 57 4 83 15 94 8 8 15 32 15 53 0 21 7 47 15 57 8 11 15 32 15 47 0
15 7 29 15 33 9 3 15 18 15 35 0 16 7 36 15 45 8 8 15 24 15 36 0 11 7 23 15
26 8 4 15 14 15 24 0 10 7 23 15 30 8 7 15 19 15 26 0 8 7 14 15 14 10 0 15
10 15 30 0 20 5 30 15 30 8 0 15 7 15 15 0 8 7 15 15 15 8 0 15 6 15 14 0 7 7
19 15 26 8 7 15 21 15 31 0 11 7 19 15 19 8 0 15 7 15 15 0 8 7 15 15 15 8 0
15 7 15 15 0 8 7 15 15 15 8 0 15 7 15 15 0 8 7 15 15 15 8 0 15 7 15 15 0 8
7 15 15 15 8 0 15 7 15 15 0 8 7 15 15 15 8 0 15 4 15 9 0 10 38 34 73 47 9 3
17 13 17 20 0 8 6 14 14 14 8 0 16 7 20 15 3 8 17 15 31 15 16 0 25 6 25 15 0
8 9 15 19 15 11 0 23 5 26 11 4 5 17 14 28 20 12 5 29 13 37 18 52 29 81 41
104 41 16 0 26 6 26 15 0 11 11 15 40 15 27 0 43 5 46 15 4 10 20 15 48 15 23
0 51 7 62 15 12 9 44 15 89 15 39 0 88 7 110 15 46 18 197 15 232 -4z m-2292
-4137 c11 -8 44 -14 73 -14 34 0 59 -5 68 -15 9 -9 34 -15 60 -15 30 0 46 -5
50 -15 4 -8 18 -15 34 -15 15 0 33 -7 40 -15 7 -8 26 -15 42 -15 16 0 31 -6
34 -15 4 -8 17 -15 30 -15 14 0 27 -6 30 -13 2 -7 25 -22 49 -32 25 -11 45
-26 45 -32 0 -7 11 -13 25 -13 14 0 28 -7 31 -15 4 -8 12 -15 20 -15 8 0 14
-7 14 -15 0 -8 7 -15 15 -15 8 0 15 -7 15 -15 0 -8 8 -15 18 -15 10 0 32 -13
50 -30 18 -16 37 -30 43 -30 5 0 9 -7 9 -15 0 -8 7 -15 15 -15 8 0 15 -4 15
-9 0 -6 14 -25 30 -43 17 -18 30 -38 30 -46 0 -7 7 -15 15 -18 8 -4 15 -12 15
-20 0 -8 7 -14 15 -14 8 0 15 -6 15 -14 0 -8 7 -16 15 -20 8 -3 15 -17 15 -31
0 -16 6 -25 15 -25 8 0 15 -6 15 -14 0 -7 7 -19 15 -26 8 -7 15 -20 15 -30 0
-10 7 -20 15 -24 8 -3 15 -16 15 -30 0 -13 7 -26 15 -30 8 -3 15 -16 15 -28 0
-13 7 -32 15 -42 8 -11 15 -32 15 -48 0 -18 5 -28 15 -28 11 0 15 -12 15 -42
0 -24 7 -52 15 -62 9 -11 15 -42 15 -70 0 -29 7 -59 15 -70 22 -29 22 -431 0
-452 -10 -10 -15 -35 -15 -75 0 -44 -4 -61 -15 -65 -10 -4 -15 -20 -15 -50 0
-32 -4 -44 -15 -44 -11 0 -15 -11 -15 -40 0 -27 -5 -43 -15 -46 -9 -4 -15 -19
-15 -35 0 -19 -5 -29 -15 -29 -10 0 -15 -10 -15 -30 0 -20 -5 -30 -15 -30 -10
0 -15 -10 -15 -30 0 -20 -5 -30 -15 -30 -8 0 -15 -6 -15 -14 0 -7 -7 -19 -15
-26 -8 -7 -15 -21 -15 -31 0 -11 -7 -19 -15 -19 -8 0 -15 -6 -15 -14 0 -8 -7
-16 -15 -20 -8 -3 -15 -15 -15 -26 0 -11 -7 -23 -15 -26 -8 -4 -15 -12 -15
-20 0 -8 -7 -14 -15 -14 -8 0 -15 -7 -15 -15 0 -8 -7 -15 -15 -15 -8 0 -15 -7
-15 -15 0 -8 -7 -15 -15 -15 -8 0 -15 -7 -15 -15 0 -8 -7 -15 -15 -15 -8 0
-15 -7 -15 -15 0 -8 -7 -15 -15 -15 -8 0 -15 -7 -15 -15 0 -8 -6 -15 -14 -15
-8 0 -16 -7 -20 -15 -3 -8 -15 -15 -26 -15 -11 0 -23 -7 -26 -15 -4 -8 -12
-15 -20 -15 -8 0 -14 -7 -14 -15 0 -8 -6 -15 -14 -15 -7 0 -19 -7 -26 -15 -7
-8 -21 -15 -31 -15 -11 0 -19 -7 -19 -15 0 -10 -10 -15 -30 -15 -20 0 -30 -5
-30 -15 0 -9 -9 -15 -25 -15 -14 0 -28 -7 -31 -15 -4 -9 -19 -15 -35 -15 -19
0 -29 -5 -29 -15 0 -10 -10 -15 -28 -15 -16 0 -37 -7 -48 -15 -10 -8 -33 -15
-51 -15 -17 0 -38 -7 -47 -15 -9 -9 -33 -15 -64 -15 -32 0 -54 -5 -62 -15 -19
-22 -491 -22 -510 0 -8 10 -31 15 -64 15 -29 0 -59 7 -70 15 -11 8 -32 15 -46
15 -14 0 -35 7 -46 15 -10 8 -31 15 -46 15 -18 0 -28 5 -28 15 0 10 -10 15
-29 15 -16 0 -31 6 -35 15 -3 8 -16 15 -30 15 -13 0 -26 7 -30 15 -3 8 -17 15
-31 15 -16 0 -25 6 -25 15 0 9 -9 15 -25 15 -14 0 -28 7 -31 15 -4 8 -12 15
-20 15 -8 0 -14 7 -14 15 0 8 -6 15 -14 15 -7 0 -19 7 -26 15 -7 8 -21 15 -31
15 -11 0 -19 7 -19 15 0 8 -7 15 -15 15 -8 0 -15 7 -15 15 0 8 -7 15 -15 15
-8 0 -15 7 -15 15 0 8 -7 15 -15 15 -8 0 -15 7 -15 15 0 8 -7 15 -15 15 -8 0
-15 7 -15 15 0 8 -7 15 -15 15 -8 0 -15 7 -15 15 0 8 -7 15 -15 15 -8 0 -15 6
-15 14 0 8 -7 16 -15 20 -8 3 -15 14 -15 25 0 10 -7 21 -15 25 -8 3 -15 12
-15 21 0 8 -7 15 -15 15 -8 0 -15 6 -15 14 0 7 -7 19 -15 26 -8 7 -15 21 -15
31 0 11 -7 19 -15 19 -10 0 -15 10 -15 30 0 20 -5 30 -15 30 -10 0 -15 10 -15
30 0 20 -5 30 -15 30 -10 0 -15 10 -15 30 0 20 -5 30 -15 30 -10 0 -15 10 -15
34 0 18 -7 39 -15 46 -9 7 -15 29 -15 52 0 25 -5 41 -15 44 -11 5 -15 22 -15
63 -1 33 -7 64 -15 75 -23 31 -22 446 1 482 11 16 15 36 11 57 -8 48 2 87 20
80 11 -5 14 2 13 28 -4 70 -1 89 15 83 11 -5 15 1 15 19 0 14 7 32 15 41 8 8
15 30 15 48 1 33 29 78 49 78 6 0 11 11 11 24 0 23 24 77 45 102 6 6 17 22 25
35 8 13 43 52 78 87 34 35 62 67 62 73 0 5 7 9 15 9 8 0 15 7 15 15 0 8 7 15
15 15 8 0 15 7 15 15 0 8 6 15 14 15 8 0 16 7 20 15 3 8 15 15 26 15 11 0 23
7 26 15 4 8 12 15 20 15 8 0 14 7 14 15 0 8 6 15 14 15 8 0 16 7 20 15 3 8 15
15 26 15 11 0 23 7 26 15 4 8 10 15 16 15 5 0 16 7 24 15 9 8 24 15 35 15 10
0 19 7 19 15 0 8 6 15 13 15 8 0 22 9 32 20 10 11 29 20 42 20 12 0 23 5 23
10 0 6 23 10 50 10 38 0 50 4 50 15 0 8 10 16 23 17 12 0 35 2 50 3 15 1 33 7
40 14 6 6 36 11 67 11 31 0 62 6 68 12 18 18 97 24 262 19 101 -2 151 -8 165
-17z m-4771 1 c12 -9 42 -15 74 -15 34 0 59 -5 68 -15 9 -9 34 -15 60 -15 30
0 46 -5 50 -15 4 -8 18 -15 33 -15 14 0 35 -7 45 -15 11 -8 30 -15 43 -15 13
0 26 -7 29 -15 4 -8 17 -15 30 -15 14 0 27 -7 30 -15 4 -8 14 -15 24 -15 10 0
23 -7 30 -15 7 -8 19 -15 26 -15 8 0 14 -7 14 -15 0 -9 9 -15 25 -15 14 0 28
-7 31 -15 4 -8 12 -15 20 -15 8 0 14 -7 14 -15 0 -8 7 -15 15 -15 8 0 15 -4
15 -9 0 -10 38 -34 73 -47 9 -3 17 -13 17 -20 0 -8 7 -14 15 -14 8 0 15 -7 15
-15 0 -8 7 -15 15 -15 8 0 15 -7 15 -15 0 -8 7 -15 15 -15 8 0 15 -6 15 -14 0
-8 7 -16 15 -20 8 -3 15 -14 15 -25 0 -10 7 -21 15 -25 8 -3 15 -12 15 -21 0
-8 7 -15 15 -15 8 0 15 -7 15 -15 0 -8 7 -15 15 -15 9 0 15 -9 15 -25 0 -14 7
-28 15 -31 8 -4 15 -12 15 -19 0 -7 7 -15 15 -19 8 -3 15 -17 15 -31 0 -16 6
-25 15 -25 10 0 15 -10 15 -30 0 -20 5 -30 15 -30 10 0 15 -10 15 -29 0 -16 6
-31 15 -35 10 -3 15 -19 15 -46 0 -29 4 -40 15 -40 11 0 15 -12 15 -44 0 -30
5 -46 15 -50 11 -4 15 -21 15 -59 0 -31 6 -61 15 -73 21 -28 22 -451 0 -480
-8 -11 -14 -42 -15 -75 0 -41 -4 -58 -15 -63 -9 -3 -15 -19 -15 -41 0 -20 -7
-43 -15 -51 -8 -9 -15 -31 -15 -50 0 -24 -5 -34 -15 -34 -10 0 -15 -10 -15
-30 0 -20 -5 -30 -15 -30 -10 0 -15 -10 -15 -30 0 -20 -5 -30 -15 -30 -10 0
-15 -10 -15 -30 0 -17 -5 -30 -12 -30 -7 0 -22 -20 -33 -45 -11 -25 -25 -45
-32 -45 -7 0 -13 -6 -13 -14 0 -8 -7 -16 -15 -20 -8 -3 -15 -15 -15 -26 0 -11
-7 -23 -15 -26 -8 -4 -15 -12 -15 -20 0 -8 -7 -14 -15 -14 -8 0 -15 -7 -15
-15 0 -8 -7 -15 -15 -15 -8 0 -15 -7 -15 -15 0 -8 -7 -15 -15 -15 -8 0 -15 -7
-15 -15 0 -8 -7 -15 -15 -15 -8 0 -15 -7 -15 -15 0 -8 -7 -15 -15 -15 -8 0
-15 -7 -15 -15 0 -8 -7 -15 -15 -15 -8 0 -15 -4 -15 -9 0 -10 -38 -34 -72 -47
-10 -3 -18 -13 -18 -20 0 -8 -5 -14 -11 -14 -6 0 -17 -7 -25 -15 -9 -8 -24
-15 -35 -15 -10 0 -19 -7 -19 -15 0 -9 -9 -15 -25 -15 -14 0 -28 -7 -31 -15
-4 -8 -17 -15 -30 -15 -14 0 -27 -7 -30 -15 -4 -9 -19 -15 -35 -15 -19 0 -29
-5 -29 -15 0 -10 -10 -15 -27 -15 -16 0 -37 -7 -47 -15 -11 -8 -32 -15 -46
-15 -14 0 -35 -7 -46 -15 -11 -8 -41 -15 -70 -15 -33 0 -56 -5 -64 -15 -18
-22 -477 -22 -506 0 -10 8 -41 15 -67 15 -29 0 -54 6 -63 15 -9 8 -30 15 -47
15 -18 0 -41 7 -51 15 -11 8 -32 15 -48 15 -18 0 -28 5 -28 15 0 10 -10 15
-30 15 -20 0 -30 5 -30 15 0 10 -10 15 -30 15 -20 0 -30 5 -30 15 0 10 -10 15
-30 15 -17 0 -30 5 -30 13 0 6 -20 21 -45 32 -25 11 -45 25 -45 32 0 7 -6 13
-14 13 -8 0 -16 7 -20 15 -3 8 -15 15 -26 15 -11 0 -23 7 -26 15 -4 8 -12 15
-20 15 -8 0 -14 7 -14 15 0 8 -7 15 -15 15 -8 0 -15 7 -15 15 0 8 -7 15 -15
15 -8 0 -15 7 -15 15 0 8 -7 15 -15 15 -8 0 -15 7 -15 15 0 8 -7 15 -15 15 -8
0 -15 7 -15 15 0 8 -7 15 -15 15 -8 0 -15 5 -15 11 0 6 -7 17 -15 25 -8 9 -15
24 -15 35 0 10 -7 19 -15 19 -8 0 -15 7 -15 15 0 8 -7 15 -15 15 -8 0 -15 8
-15 19 0 10 -7 24 -15 31 -8 7 -15 19 -15 26 0 8 -7 14 -15 14 -10 0 -15 10
-15 30 0 20 -5 30 -15 30 -10 0 -15 10 -15 30 0 20 -5 30 -15 30 -10 0 -15 10
-15 29 0 16 -6 31 -15 35 -9 3 -15 19 -15 41 0 22 -6 38 -15 41 -10 4 -15 20
-15 49 0 27 -5 45 -14 48 -9 4 -15 28 -18 73 -2 40 -9 69 -16 72 -9 3 -12 61
-12 217 0 177 3 216 15 229 10 9 15 34 15 68 0 32 6 62 15 74 8 10 15 36 15
57 0 24 5 40 15 43 8 4 15 18 15 33 0 14 7 35 15 45 8 11 15 30 15 43 0 13 7
26 15 29 8 4 15 17 15 30 0 14 7 27 15 30 8 4 15 14 15 24 0 10 7 23 15 30 8
7 15 19 15 26 0 8 7 14 15 14 9 0 15 9 15 25 0 14 7 28 15 31 8 4 15 12 15 20
0 8 7 14 15 14 8 0 15 6 15 14 0 8 7 16 15 20 8 3 15 11 15 18 0 8 14 28 30
46 17 18 30 37 30 43 0 5 7 9 15 9 8 0 15 7 15 15 0 8 5 15 10 15 6 0 19 8 29
18 39 34 50 42 66 42 8 0 15 7 15 15 0 8 7 15 15 15 8 0 15 7 15 15 0 8 6 15
14 15 8 0 16 7 20 15 3 8 17 15 31 15 14 0 25 6 25 13 0 6 20 21 45 32 24 10
47 25 49 32 3 7 16 13 30 13 13 0 26 7 30 15 3 9 18 15 34 15 16 0 35 7 42 15
7 8 23 15 37 15 13 0 31 7 39 15 9 8 33 15 53 15 21 0 44 6 50 14 7 9 39 15
83 18 44 2 73 9 76 16 6 19 381 16 406 -3z"/>
<path d="M4650 10855 c0 -11 -12 -15 -44 -15 -30 0 -46 -5 -50 -15 -3 -9 -18
-15 -40 -15 -36 0 -57 -15 -147 -103 -45 -45 -49 -52 -49 -97 0 -26 -7 -61
-15 -76 -8 -16 -15 -55 -15 -86 0 -45 -3 -58 -15 -58 -28 0 -18 -59 17 -96 29
-30 32 -39 29 -86 -2 -33 -8 -56 -18 -63 -14 -11 -14 -12 1 -18 9 -4 16 -13
16 -22 0 -8 7 -15 15 -15 8 0 15 -7 15 -15 0 -10 10 -15 30 -15 20 0 30 -5 30
-15 0 -11 12 -15 45 -15 33 0 45 4 45 15 0 8 7 15 15 15 8 0 15 7 15 15 0 8 7
15 15 15 8 0 15 7 15 15 0 12 15 15 73 15 49 0 80 5 93 15 11 8 41 15 69 15
44 0 54 4 75 30 14 16 31 29 38 30 6 0 12 7 12 15 0 8 7 15 15 15 8 0 15 6 15
14 0 7 7 19 15 26 8 7 15 27 15 45 0 18 7 38 15 45 8 7 15 27 15 44 0 18 7 41
15 52 20 26 20 104 0 104 -8 0 -15 7 -15 15 0 8 -7 15 -15 15 -8 0 -15 -7 -15
-15 0 -8 -7 -15 -15 -15 -8 0 -15 -7 -15 -15 0 -8 -7 -15 -15 -15 -8 0 -15 -7
-15 -15 0 -8 -7 -15 -15 -15 -8 0 -15 -7 -15 -15 0 -8 -7 -15 -15 -15 -8 0
-15 -7 -15 -15 0 -8 -7 -15 -15 -15 -8 0 -15 -7 -15 -15 0 -8 -6 -15 -14 -15
-8 0 -16 -7 -20 -15 -3 -8 -15 -15 -26 -15 -11 0 -23 7 -26 15 -4 8 -12 15
-20 15 -8 0 -14 7 -14 15 0 8 -7 15 -15 15 -8 0 -15 7 -15 15 0 8 -7 15 -15
15 -8 0 -15 7 -15 15 0 8 -7 15 -15 15 -8 0 -15 7 -15 15 0 8 -7 15 -15 15 -8
0 -15 7 -15 15 0 9 -7 18 -15 21 -11 5 -13 10 -5 19 5 6 7 15 3 18 -3 4 -1 7
5 7 7 0 12 5 12 11 0 7 41 52 90 101 90 88 103 108 75 108 -8 0 -15 7 -15 15
0 11 -12 15 -45 15 -33 0 -45 -4 -45 -15z"/>
<path d="M3338 10771 c-66 -67 -87 -111 -53 -111 10 0 15 -10 15 -30 0 -20 5
-30 15 -30 8 0 15 -6 15 -14 0 -8 6 -16 14 -19 8 -3 16 -16 18 -29 2 -17 11
-24 31 -26 15 -2 27 -9 27 -18 0 -9 11 -14 30 -14 20 0 30 -5 30 -15 0 -10 10
-15 30 -15 20 0 30 -5 30 -15 0 -10 10 -15 30 -15 20 0 30 -5 30 -15 0 -8 4
-15 10 -15 5 0 63 -54 128 -120 78 -78 127 -120 141 -120 12 0 21 6 21 15 0 8
7 15 15 15 8 0 15 7 15 15 0 8 7 15 15 15 10 0 15 10 15 30 0 20 -5 30 -15 30
-8 0 -15 7 -15 15 0 8 -7 15 -15 15 -8 0 -15 7 -15 15 0 8 -7 15 -15 15 -8 0
-15 7 -15 15 0 8 -7 15 -15 15 -8 0 -15 7 -15 15 0 8 -7 15 -15 15 -8 0 -15 7
-15 15 0 8 -7 15 -15 15 -8 0 -15 7 -15 15 0 8 -7 15 -15 15 -8 0 -15 7 -15
15 0 8 -7 15 -15 15 -10 0 -15 10 -15 30 0 20 -5 30 -15 30 -10 0 -15 10 -15
30 0 20 -5 30 -15 30 -10 0 -15 10 -15 30 0 20 -5 30 -15 30 -10 0 -15 10 -15
30 0 20 -5 30 -15 30 -8 0 -15 7 -15 15 0 8 -7 15 -15 15 -8 0 -15 7 -15 15 0
8 -6 15 -14 15 -8 0 -16 7 -20 15 -3 8 -17 15 -31 15 -16 0 -25 6 -25 15 0 11
-11 15 -37 15 -33 -1 -46 -9 -105 -69z"/>
<path d="M4140 10345 c0 -8 -7 -15 -15 -15 -8 0 -15 -7 -15 -15 0 -8 -7 -15
-15 -15 -8 0 -15 -7 -15 -15 0 -8 -7 -15 -15 -15 -8 0 -15 -7 -15 -15 0 -8 -7
-15 -15 -15 -8 0 -15 -7 -15 -15 0 -8 -7 -15 -15 -15 -8 0 -15 -7 -15 -15 0
-8 -7 -15 -15 -15 -8 0 -15 -7 -15 -15 0 -8 -7 -15 -15 -15 -8 0 -15 -7 -15
-15 0 -8 -7 -15 -15 -15 -8 0 -15 -7 -15 -15 0 -8 -7 -15 -15 -15 -8 0 -15 -7
-15 -15 0 -8 -7 -15 -15 -15 -8 0 -15 -7 -15 -15 0 -8 -7 -15 -15 -15 -8 0
-15 -7 -15 -15 0 -8 -7 -15 -15 -15 -8 0 -15 -6 -15 -14 0 -8 -7 -16 -15 -20
-11 -4 -1 -20 40 -62 52 -55 57 -57 102 -55 31 1 50 7 59 19 12 16 13 16 19 0
5 -12 18 -18 36 -18 19 0 29 -5 29 -15 0 -8 7 -15 15 -15 8 0 15 -6 15 -14 0
-7 7 -19 15 -26 8 -7 15 -19 15 -27 0 -8 7 -21 15 -29 8 -9 15 -29 15 -45 0
-17 6 -32 15 -35 8 -4 15 -14 15 -24 0 -10 7 -25 15 -34 8 -8 15 -19 15 -25 0
-6 7 -11 15 -11 8 0 15 -7 15 -15 0 -8 7 -15 15 -15 8 0 15 -7 15 -15 0 -8 7
-15 15 -15 8 0 15 -7 15 -15 0 -8 6 -15 14 -15 8 0 16 -3 18 -8 2 -4 38 -40
81 -80 l77 -73 48 6 c26 4 52 13 58 21 6 8 16 14 23 14 6 0 11 7 11 15 0 8 4
15 10 15 12 0 110 98 110 110 0 6 7 10 15 10 8 0 15 7 15 15 0 8 7 15 15 15
10 0 15 10 15 30 0 20 5 30 15 30 10 0 15 10 15 30 0 20 -5 30 -15 30 -8 0
-15 4 -15 9 0 13 -275 291 -288 291 -5 0 -12 7 -16 15 -3 9 -18 15 -34 15 -16
0 -35 7 -42 15 -7 8 -23 15 -37 15 -13 0 -26 7 -29 15 -4 8 -12 15 -20 15 -8
0 -14 7 -14 15 0 8 -7 15 -15 15 -8 0 -15 7 -15 15 0 8 -7 15 -15 15 -12 0
-15 13 -15 60 0 47 3 60 15 60 8 0 15 7 15 15 0 8 -7 15 -15 15 -8 0 -15 7
-15 15 0 8 -7 15 -15 15 -8 0 -15 7 -15 15 0 8 -7 15 -15 15 -8 0 -15 7 -15
15 0 8 -7 15 -15 15 -8 0 -15 7 -15 15 0 8 -7 15 -15 15 -8 0 -15 -7 -15 -15z"/>
<path d="M3750 9865 c0 -8 -7 -15 -15 -15 -8 0 -15 -7 -15 -15 0 -8 -7 -15
-15 -15 -8 0 -15 -7 -15 -15 0 -8 -7 -15 -15 -15 -8 0 -15 -7 -15 -15 0 -8 -7
-15 -15 -15 -8 0 -15 -7 -15 -15 0 -8 -7 -15 -15 -15 -8 0 -15 -7 -15 -15 0
-8 -7 -15 -15 -15 -8 0 -15 -7 -15 -15 0 -8 -7 -15 -15 -15 -8 0 -15 -7 -15
-15 0 -8 -6 -15 -12 -15 -42 0 -70 -180 -34 -219 9 -10 16 -25 16 -34 0 -9 7
-17 15 -17 8 0 15 -6 15 -12 1 -15 68 -48 98 -48 12 0 22 -5 22 -10 0 -11 45
-9 56 3 4 4 20 7 36 7 18 0 28 5 28 15 0 8 7 15 15 15 8 0 15 7 15 15 0 8 7
15 15 15 8 0 15 7 15 15 0 8 7 15 15 15 8 0 15 7 15 15 0 8 7 15 15 15 8 0 15
7 15 15 0 8 7 15 15 15 8 0 15 7 15 15 0 8 7 15 15 15 8 0 15 7 15 15 0 8 7
15 15 15 8 0 15 7 15 15 0 8 7 15 15 15 8 0 15 7 15 15 0 8 7 15 15 15 8 0 15
7 15 15 0 8 7 15 15 15 8 0 15 6 15 14 0 8 7 16 15 20 8 3 15 10 15 16 0 5 -7
10 -15 10 -10 0 -15 10 -15 30 0 20 -5 30 -15 30 -8 0 -15 8 -15 19 0 23 -61
71 -90 71 -11 0 -23 -7 -26 -15 -4 -10 -20 -15 -50 -15 -32 0 -44 4 -44 15 0
8 -7 15 -15 15 -8 0 -15 7 -15 15 0 8 -7 15 -15 15 -8 0 -15 7 -15 15 0 8 -7
15 -15 15 -8 0 -15 -7 -15 -15z"/>
<path d="M8070 10615 l0 -226 900 1 c742 2 903 4 914 15 10 11 14 62 14 224
l2 210 -915 1 -915 0 0 -225z m1710 105 l0 -30 -225 0 -225 0 0 30 0 30 225 0
225 0 0 -30z m-1356 -46 c3 -9 6 -36 6 -60 l0 -44 -120 0 -120 0 0 60 0 60
114 0 c95 0 115 -3 120 -16z m1356 -44 l0 -30 -225 0 -225 0 0 23 c0 13 3 27
7 30 3 4 105 7 225 7 l218 0 0 -30z m-2 -117 l-3 -28 -220 0 -220 0 -3 28 -3
27 226 0 226 0 -3 -27z"/>
<path d="M8077 10304 c-4 -4 -7 -101 -7 -216 l0 -208 916 0 915 0 -3 209 c-2
201 -3 210 -23 215 -31 8 -1790 7 -1798 0z m1698 -110 c0 -18 -13 -19 -214
-22 -211 -2 -240 1 -229 30 4 10 51 13 224 12 206 -2 219 -3 219 -20z m-1345
-104 l0 -60 -120 0 -120 0 0 60 0 60 120 0 120 0 0 -60z m1350 0 l0 -30 -225
0 -225 0 0 30 0 30 225 0 225 0 0 -30z m0 -90 l0 -30 -225 0 -225 0 0 23 c0
13 3 27 7 30 3 4 105 7 225 7 l218 0 0 -30z"/>
<path d="M8070 9565 l0 -225 913 2 912 3 0 220 0 220 -912 3 -913 2 0 -225z
m1710 105 l0 -30 -225 0 -225 0 0 30 0 30 225 0 225 0 0 -30z m-1372 -56 c18
-5 22 -13 22 -50 0 -41 -2 -43 -32 -49 -18 -3 -71 -5 -118 -3 l-85 3 -3 39
c-5 64 -3 66 100 66 51 0 103 -3 116 -6z m1367 -47 c0 -18 -13 -19 -218 -19
-121 0 -221 3 -224 6 -3 3 -3 12 1 21 5 13 33 15 223 13 204 -3 218 -4 218
-21z m5 -107 l0 -30 -225 0 -225 0 0 30 0 30 225 0 225 0 0 -30z"/>
<path d="M6605 8973 c-11 -3 -24 -9 -29 -14 -6 -5 -27 -9 -47 -9 -20 0 -42 -6
-48 -14 -6 -7 -29 -16 -51 -20 -22 -3 -40 -11 -40 -16 0 -6 -11 -10 -25 -10
-14 0 -28 -7 -31 -15 -4 -8 -17 -15 -30 -15 -14 0 -27 -6 -30 -14 -3 -8 -16
-17 -30 -20 -13 -4 -24 -11 -24 -16 0 -6 -9 -10 -20 -10 -11 0 -20 -7 -20 -15
0 -8 -4 -15 -10 -15 -11 0 -29 -15 -92 -78 -63 -63 -78 -81 -78 -92 0 -5 -7
-10 -15 -10 -8 0 -15 -8 -15 -19 0 -10 -7 -24 -15 -31 -8 -7 -15 -23 -15 -37
0 -13 -7 -26 -15 -29 -9 -4 -15 -19 -15 -39 0 -18 -7 -38 -15 -45 -9 -8 -15
-29 -15 -55 0 -25 -5 -45 -12 -47 -12 -4 -22 -88 -36 -315 -6 -102 -10 -124
-26 -136 -17 -12 -18 -28 -15 -210 3 -139 8 -200 17 -209 6 -6 12 -37 12 -67
1 -31 7 -67 15 -81 8 -14 14 -39 15 -56 0 -17 7 -37 15 -44 8 -7 15 -21 15
-31 0 -9 7 -24 15 -33 8 -8 15 -22 15 -30 0 -9 5 -16 10 -16 19 0 50 -40 50
-65 0 -16 6 -25 15 -25 10 0 15 -10 15 -30 0 -20 5 -30 15 -30 9 0 15 -9 15
-25 0 -14 6 -28 14 -31 8 -3 17 -16 20 -30 4 -13 11 -24 16 -24 6 0 10 -9 10
-20 0 -11 6 -20 14 -20 7 0 17 -8 20 -17 13 -35 37 -73 47 -73 5 0 9 -7 9 -15
0 -8 7 -15 15 -15 8 0 15 -7 15 -15 0 -8 7 -15 15 -15 8 0 15 -7 15 -15 0 -8
7 -15 15 -15 8 0 15 -7 15 -15 0 -8 7 -15 15 -15 8 0 15 -7 15 -15 0 -8 7 -15
15 -15 8 0 15 -7 15 -15 0 -8 9 -15 20 -15 11 0 20 -4 20 -10 0 -5 11 -12 24
-16 14 -3 27 -12 30 -20 3 -8 16 -14 28 -14 13 0 32 -7 42 -15 16 -12 62 -15
237 -15 130 0 220 4 224 10 3 5 24 14 45 20 22 6 40 15 40 20 0 6 7 10 15 10
8 0 24 8 34 18 32 28 45 38 64 45 9 3 17 11 17 17 0 5 7 10 15 10 8 0 15 6 15
13 1 6 14 23 30 37 17 13 30 28 30 32 0 9 11 24 43 59 9 10 17 24 17 29 0 6
19 10 43 10 23 0 55 7 71 15 15 8 35 15 42 15 12 0 33 15 66 48 35 35 48 54
48 72 0 11 7 23 15 26 8 4 15 17 15 30 0 14 7 27 15 30 8 4 15 18 15 34 0 16
5 30 10 32 6 2 13 21 17 43 3 22 12 46 20 53 7 7 13 27 13 43 0 17 7 37 15 45
8 9 15 28 15 43 0 16 7 48 15 71 9 25 15 77 15 125 0 61 -4 86 -15 95 -20 16
-20 118 -1 155 22 42 23 478 1 519 -8 15 -15 43 -15 61 0 18 -6 38 -14 44 -8
7 -17 27 -20 46 -4 18 -10 35 -14 37 -4 2 -18 25 -32 51 -46 88 -51 97 -61 97
-5 0 -9 7 -9 15 0 8 -7 15 -15 15 -8 0 -15 5 -15 10 0 15 -94 110 -108 110 -7
0 -12 7 -12 15 0 8 -7 15 -15 15 -8 0 -15 7 -15 15 0 8 -6 15 -14 15 -7 0 -19
7 -26 15 -7 8 -21 15 -31 15 -11 0 -19 7 -19 15 0 8 -9 15 -20 15 -11 0 -20 4
-20 10 0 5 -12 13 -27 16 -15 4 -34 13 -41 21 -7 7 -24 13 -38 13 -14 0 -27 7
-30 15 -4 9 -19 15 -39 15 -18 0 -38 7 -45 15 -7 9 -29 15 -55 15 -23 0 -59 7
-78 15 -27 11 -72 15 -169 14 -73 -1 -142 -3 -153 -6z m985 -593 c0 -20 5 -30
15 -30 10 0 15 -10 15 -31 0 -17 7 -37 15 -45 9 -9 15 -33 15 -58 0 -23 7 -51
15 -62 11 -15 14 -53 15 -167 l0 -148 -27 3 -28 3 -3 190 c-2 125 -6 191 -14
196 -6 4 -13 31 -16 60 -3 30 -11 58 -18 62 -19 11 -18 57 1 57 10 0 15 -10
15 -30z m-1246 -465 c13 -10 43 -15 81 -15 38 0 68 -5 81 -15 28 -21 406 -22
448 0 16 9 55 15 91 15 47 0 64 4 69 15 4 12 24 15 91 15 69 0 85 -3 85 -15 0
-8 7 -15 15 -15 13 0 15 -25 15 -163 0 -90 2 -166 4 -168 3 -3 22 -3 43 -1 32
3 41 10 56 38 9 19 17 50 17 69 0 37 16 56 26 31 3 -9 12 -16 20 -16 8 0 14
-7 14 -15 0 -8 -7 -15 -15 -15 -10 0 -15 -10 -15 -34 0 -18 -7 -39 -15 -46 -8
-7 -15 -27 -15 -46 0 -18 -7 -39 -15 -48 -9 -9 -15 -33 -15 -64 0 -27 -7 -69
-15 -93 -9 -24 -14 -68 -13 -102 2 -46 -1 -62 -15 -72 -9 -7 -17 -24 -17 -39
0 -16 -5 -26 -15 -26 -10 0 -15 -10 -15 -30 0 -20 -5 -30 -15 -30 -10 0 -15
-10 -15 -30 0 -20 -5 -30 -15 -30 -10 0 -15 -10 -15 -30 l0 -30 87 0 c91 0
123 13 123 50 0 10 7 23 15 30 8 7 15 20 15 29 0 19 45 63 54 54 12 -12 5 -43
-9 -43 -10 0 -15 -10 -15 -29 0 -16 -6 -31 -15 -35 -8 -3 -15 -17 -15 -31 0
-16 -6 -25 -15 -25 -8 0 -15 -4 -15 -10 0 -5 -9 -19 -20 -30 -19 -19 -33 -20
-285 -20 -218 0 -265 2 -265 14 0 7 -14 16 -31 20 -41 8 -227 8 -268 0 l-32
-7 3 -86 3 -86 144 -3 c122 -2 146 0 153 13 13 22 238 22 238 0 0 -8 -7 -15
-15 -15 -8 0 -15 -7 -15 -15 0 -8 -7 -15 -15 -15 -8 0 -15 -7 -15 -15 0 -8 -7
-15 -15 -15 -8 0 -15 -7 -15 -15 0 -8 -7 -15 -15 -15 -8 0 -15 -7 -15 -15 0
-9 -9 -15 -25 -15 -13 0 -28 -7 -33 -16 -8 -15 -34 -17 -207 -17 -172 0 -200
2 -210 17 -7 9 -17 16 -23 16 -5 0 -12 7 -16 15 -3 8 -13 15 -22 15 -27 0
-102 83 -120 133 -3 9 -13 17 -20 17 -8 0 -14 7 -14 15 0 8 -7 15 -15 15 -9 0
-15 9 -15 25 0 14 -7 28 -15 31 -8 4 -15 12 -15 19 0 7 -7 15 -15 19 -8 3 -15
17 -15 31 0 16 -6 25 -15 25 -10 0 -15 10 -15 30 0 20 -5 30 -15 30 -10 0 -15
10 -15 29 0 16 -6 31 -15 35 -9 3 -15 19 -15 41 0 22 -6 38 -15 41 -8 4 -15
12 -15 20 0 8 -7 14 -15 14 -8 0 -15 7 -15 15 0 8 -7 15 -15 15 -9 0 -15 10
-15 26 0 14 -7 32 -15 40 -10 10 -15 35 -15 69 0 34 -5 59 -15 69 -12 11 -15
42 -15 144 0 158 3 171 36 140 17 -16 24 -34 24 -60 0 -27 4 -38 15 -38 8 0
15 -7 15 -15 0 -11 12 -15 46 -15 l46 0 -7 73 c-14 152 -6 257 21 257 8 0 14
7 14 15 0 21 137 21 164 0z"/>
<path d="M6018 6536 c-13 -7 -41 -16 -63 -19 -21 -3 -41 -11 -45 -17 -4 -6
-24 -13 -46 -16 -21 -3 -61 -14 -87 -25 -26 -11 -52 -17 -57 -14 -5 3 -11 1
-15 -5 -3 -5 -18 -10 -33 -10 -15 0 -40 -9 -57 -20 -20 -14 -39 -18 -58 -14
-18 4 -29 1 -32 -8 -3 -8 -22 -15 -43 -16 -20 -2 -50 -9 -66 -17 -16 -8 -38
-15 -48 -15 -10 0 -21 -7 -24 -15 -4 -10 -20 -15 -48 -15 -22 0 -53 -6 -68
-14 -15 -8 -40 -17 -57 -21 -17 -4 -33 -11 -36 -16 -4 -5 -19 -9 -36 -9 -19 0
-29 -5 -29 -15 0 -8 -6 -15 -14 -15 -19 0 -76 -57 -76 -76 0 -8 -7 -14 -15
-14 -9 0 -15 -9 -15 -25 0 -14 -7 -28 -15 -31 -10 -4 -13 -14 -9 -30 4 -15 0
-34 -10 -49 -9 -13 -16 -35 -16 -48 0 -14 -9 -36 -20 -50 -11 -14 -20 -40 -20
-60 0 -19 -7 -40 -15 -47 -8 -7 -15 -23 -15 -36 0 -12 -4 -26 -10 -29 -5 -3
-10 -25 -10 -48 0 -25 -8 -54 -20 -72 -11 -16 -20 -46 -20 -67 0 -20 -5 -38
-11 -40 -6 -2 -14 -28 -17 -58 -2 -30 -9 -58 -15 -61 -5 -4 -12 -31 -15 -60
-3 -30 -9 -57 -14 -60 -5 -3 -13 -35 -18 -71 -4 -36 -13 -74 -19 -86 -6 -11
-11 -41 -11 -65 l0 -44 -42 -6 c-24 -3 -44 -11 -46 -16 -2 -6 -16 -11 -32 -11
-16 0 -35 -7 -44 -15 -8 -8 -22 -15 -30 -15 -9 0 -16 -7 -16 -15 0 -8 -6 -15
-14 -15 -13 0 -36 -21 -86 -78 -8 -10 -24 -35 -34 -57 -10 -22 -25 -52 -33
-67 -20 -40 -19 -341 2 -362 8 -8 15 -19 15 -25 0 -12 59 -71 71 -71 6 0 17
-7 25 -15 13 -13 78 -15 456 -15 l441 0 -6 128 c-3 71 -11 141 -17 156 -5 15
-10 89 -11 164 0 75 -5 164 -10 197 -6 33 -14 148 -19 255 -4 107 -13 208 -19
223 -6 16 -11 88 -11 160 -1 73 -6 164 -12 202 -24 153 -9 254 43 277 16 7 29
18 29 24 0 7 15 14 33 17 17 3 55 10 82 16 67 13 2765 15 2765 1 0 -5 16 -12
35 -16 19 -3 35 -10 35 -14 0 -4 11 -12 25 -18 13 -6 27 -23 31 -37 3 -14 10
-25 15 -25 13 0 11 -373 -2 -407 -6 -15 -13 -109 -16 -208 -2 -99 -9 -195 -15
-214 -6 -19 -14 -120 -19 -225 -4 -105 -12 -218 -18 -251 -5 -33 -10 -122 -10
-197 -1 -75 -6 -149 -11 -164 -8 -21 -8 -29 2 -36 7 -4 138 -8 291 -8 238 0
278 2 283 15 4 8 12 15 20 15 8 0 14 7 14 15 0 8 7 15 15 15 8 0 15 7 15 16 0
8 7 22 15 30 8 9 15 28 15 44 0 16 6 30 13 33 17 5 17 433 0 468 -7 13 -13 60
-15 103 -2 51 -8 81 -16 84 -7 2 -12 25 -12 60 0 32 -7 70 -15 86 -8 15 -15
47 -15 70 -1 22 -7 52 -15 66 -8 14 -14 43 -15 66 0 22 -7 49 -15 60 -8 10
-15 33 -15 50 0 16 -7 39 -15 50 -8 10 -15 34 -15 52 0 19 -6 46 -14 60 -8 15
-18 44 -21 65 -3 20 -10 37 -14 37 -5 0 -11 19 -14 41 -3 23 -10 45 -15 48 -5
3 -12 24 -15 46 -4 22 -11 41 -17 43 -5 2 -10 16 -10 32 0 16 -7 35 -15 44 -8
8 -15 26 -15 41 0 14 -7 28 -15 31 -8 4 -15 12 -15 19 0 8 -6 20 -13 27 -7 7
-16 20 -19 29 -4 9 -25 25 -47 35 -22 11 -41 25 -41 32 0 6 -11 12 -25 12 -14
0 -28 7 -31 15 -4 9 -19 15 -38 15 -18 0 -41 7 -52 15 -10 8 -36 15 -56 15
-21 0 -38 4 -38 10 0 5 -17 12 -37 15 -21 3 -50 13 -65 21 -14 8 -39 14 -55
14 -16 0 -38 7 -49 15 -10 8 -36 15 -56 15 -21 0 -38 4 -38 10 0 5 -17 12 -37
15 -21 3 -50 13 -65 21 -14 8 -39 14 -55 14 -16 0 -38 7 -49 15 -10 8 -35 15
-56 15 -20 0 -38 5 -40 10 -2 6 -21 13 -43 17 -22 3 -42 10 -45 14 -3 4 -18
11 -33 14 -21 6 -27 4 -27 -9 0 -9 -7 -16 -15 -16 -8 0 -15 -7 -15 -15 0 -8
-7 -15 -15 -15 -8 0 -15 -7 -15 -15 0 -8 -7 -15 -15 -15 -8 0 -15 -7 -15 -15
0 -8 -7 -15 -15 -15 -8 0 -15 -7 -15 -15 0 -8 -7 -15 -15 -15 -8 0 -15 -6 -15
-14 0 -8 -11 -17 -25 -20 -14 -4 -25 -11 -25 -16 0 -6 -9 -10 -20 -10 -11 0
-20 -6 -20 -14 0 -8 -13 -17 -30 -21 -16 -4 -30 -11 -30 -16 0 -5 -9 -9 -19
-9 -11 0 -26 -6 -33 -14 -8 -7 -38 -15 -68 -18 -30 -3 -56 -11 -58 -17 -5 -14
-388 -16 -397 -2 -3 5 -31 13 -62 17 -32 4 -63 13 -71 20 -7 8 -22 14 -31 14
-10 0 -24 7 -31 15 -7 8 -21 15 -31 15 -11 0 -19 4 -19 10 0 5 -11 12 -25 16
-14 3 -25 12 -25 20 0 8 -5 14 -11 14 -5 0 -50 40 -99 89 -83 84 -89 88 -112
77z"/>
<path d="M5328 5869 c-20 -22 -23 -103 -7 -204 6 -33 14 -148 19 -255 4 -107
13 -208 19 -223 6 -16 11 -90 12 -165 0 -75 5 -164 10 -197 6 -33 14 -148 19
-255 4 -107 13 -208 19 -223 6 -16 11 -85 11 -155 l0 -127 27 -12 c21 -10 297
-13 1271 -13 1145 0 1246 1 1272 17 16 9 31 26 34 37 3 12 6 107 6 213 0 114
4 203 11 220 6 15 15 116 19 223 5 107 13 222 19 255 5 33 10 122 10 197 1 75
6 149 12 165 6 15 13 105 15 198 3 94 10 194 16 222 11 51 10 54 -16 78 l-27
25 -1377 -1 c-1344 -1 -1377 -1 -1394 -20z m1072 -1523 c10 -13 113 -15 703
-15 381 -1 700 -1 710 -1 23 0 22 -22 -3 -43 -19 -16 -93 -17 -1096 -17
l-1075 0 3 31 3 31 345 -1 c294 -2 348 0 365 13 25 19 30 19 45 2z"/>
<path d="M6657 3882 c-15 -3 -17 -22 -17 -163 0 -126 3 -164 14 -175 10 -9 37
-14 86 -14 l70 0 -2 176 -3 176 -66 2 c-36 0 -73 0 -82 -2z"/>
<path d="M6544 3451 c-2 -2 -4 -89 -4 -193 l0 -188 195 0 195 0 0 178 c0 97
-4 182 -8 189 -5 9 -62 13 -191 15 -100 2 -185 1 -187 -1z"/>
<path d="M5663 3333 c-9 -3 -13 -27 -13 -72 0 -110 -33 -102 410 -99 l385 3 3
88 3 87 -388 -1 c-213 0 -394 -3 -400 -6z"/>
<path d="M7015 3334 c-13 -5 -4 -149 11 -164 7 -7 132 -9 390 -8 l379 3 3 88
3 87 -388 -1 c-213 0 -392 -2 -398 -5z"/>
<path d="M1024 6715 c-4 -8 -12 -15 -20 -15 -12 0 -14 -107 -14 -693 0 -526 3
-696 12 -705 9 -9 113 -12 405 -12 343 0 393 -2 393 -15 0 -8 4 -15 9 -15 6 0
25 -13 43 -30 18 -16 38 -30 46 -30 7 0 15 -7 18 -15 4 -8 12 -15 20 -15 8 0
14 -7 14 -15 0 -8 7 -15 15 -15 8 0 15 -7 15 -15 0 -8 7 -15 15 -15 8 0 15 -7
15 -15 0 -8 7 -15 15 -15 8 0 15 -7 15 -15 0 -8 4 -15 9 -15 6 0 25 -13 43
-30 22 -21 43 -30 65 -30 l33 0 0 150 0 150 178 2 177 3 3 703 c2 596 0 702
-12 702 -8 0 -16 7 -20 15 -5 13 -97 15 -746 15 -649 0 -741 -2 -746 -15z
m937 -211 c8 -8 21 -14 27 -14 6 0 15 -8 21 -17 9 -17 11 -17 44 0 19 11 48
17 68 15 l34 -3 3 -87 c2 -69 6 -88 17 -88 8 0 15 -7 15 -15 0 -8 6 -15 14
-15 16 0 24 -31 18 -67 -3 -14 -11 -23 -22 -23 -10 0 -23 -7 -30 -15 -7 -8
-20 -15 -30 -15 -26 0 -38 -20 -42 -70 -3 -39 -6 -45 -28 -48 -13 -2 -30 -11
-36 -20 -12 -16 -13 -16 -19 1 -4 9 -13 17 -21 17 -8 0 -14 7 -14 15 0 8 -7
15 -15 15 -8 0 -15 7 -15 15 0 10 -10 15 -30 15 -20 0 -30 -5 -30 -15 0 -11
-12 -15 -45 -15 -33 0 -45 4 -45 15 0 8 -7 15 -15 15 -10 0 -15 10 -15 30 0
17 4 30 10 30 5 0 12 11 16 24 5 20 -3 33 -41 69 -40 39 -46 50 -43 78 2 28 8
35 28 37 14 2 29 10 33 18 4 8 18 14 30 14 25 1 57 54 57 95 0 36 63 42 101 9z
m-351 -269 c7 -8 23 -15 36 -15 40 0 64 -29 64 -77 0 -23 -5 -45 -10 -48 -8
-5 -8 -11 -1 -19 6 -7 8 -16 4 -20 -4 -4 3 -9 15 -13 12 -3 22 -12 22 -19 0
-8 7 -14 15 -14 8 0 15 -7 15 -15 0 -11 11 -15 40 -15 27 0 43 5 46 15 4 9 19
15 35 15 19 0 29 -5 29 -15 0 -8 7 -15 15 -15 10 0 15 -10 15 -29 0 -16 6 -31
15 -35 8 -3 15 -17 15 -31 0 -16 -6 -25 -15 -25 -8 0 -15 -7 -15 -15 0 -8 -7
-15 -15 -15 -8 0 -15 -7 -15 -15 0 -8 -7 -15 -15 -15 -20 0 -35 -40 -24 -62 5
-9 9 -33 9 -52 0 -25 4 -36 15 -36 8 0 15 -7 15 -15 0 -10 10 -15 29 -15 23 0
30 -5 33 -22 6 -44 -4 -98 -18 -98 -9 0 -14 -11 -14 -30 0 -27 -3 -30 -34 -30
-19 0 -41 7 -50 15 -8 8 -26 15 -40 15 -16 0 -26 -6 -26 -15 0 -13 -43 -15
-330 -15 l-330 0 0 285 c0 247 2 285 15 285 12 0 15 13 15 55 0 40 -4 57 -15
61 -8 4 -15 10 -15 15 0 15 34 49 49 49 8 0 22 6 30 14 30 27 101 25 101 -3 0
-10 7 -24 15 -31 8 -7 15 -19 15 -26 0 -11 18 -14 75 -14 60 0 75 3 75 15 0 8
7 15 15 15 10 0 15 10 15 30 0 20 5 30 15 30 8 0 15 7 15 15 0 8 8 15 19 15
10 0 24 -7 31 -15z"/>
<path d="M1920 6355 c0 -8 -7 -15 -15 -15 -12 0 -15 -13 -15 -60 0 -47 3 -60
15 -60 8 0 15 -7 15 -15 0 -12 13 -15 60 -15 45 0 60 4 60 14 0 8 7 16 15 20
25 9 20 90 -9 120 -19 21 -32 26 -75 26 -39 0 -51 -4 -51 -15z"/>
<path d="M1353 5863 c-20 -3 -33 -10 -33 -19 0 -8 -7 -14 -15 -14 -10 0 -15
-10 -15 -29 0 -16 -6 -31 -15 -35 -11 -4 -15 -20 -15 -56 0 -32 6 -57 15 -66
8 -9 15 -24 15 -35 0 -10 7 -19 15 -19 8 0 15 -7 15 -15 0 -8 7 -15 15 -15 8
0 15 -7 15 -15 0 -23 157 -21 203 2 45 24 94 134 77 177 -5 15 -10 37 -10 48
0 31 -63 84 -107 92 -39 6 -105 6 -160 -1z"/>
<path d="M11856 6831 c-4 -6 -32 -11 -62 -11 -39 0 -56 -4 -60 -15 -4 -9 -19
-15 -35 -15 -18 0 -29 -5 -29 -14 0 -7 -8 -17 -17 -20 -53 -19 -102 -65 -124
-115 -8 -17 -20 -31 -26 -31 -8 0 -13 -13 -13 -30 0 -20 -5 -30 -15 -30 -11 0
-15 -12 -15 -42 0 -24 -7 -52 -15 -62 -18 -24 -21 -132 -3 -138 6 -2 13 -30
16 -61 3 -39 9 -57 18 -57 9 0 14 -11 14 -30 0 -20 5 -30 15 -30 8 0 15 -6 15
-14 0 -8 7 -16 15 -20 8 -3 15 -11 15 -18 0 -16 50 -68 66 -68 6 0 14 -7 18
-15 3 -8 12 -15 21 -15 8 0 15 -7 15 -15 0 -9 10 -15 26 -15 14 0 32 -7 40
-15 26 -26 312 -25 327 1 11 20 87 19 87 -1 0 -8 7 -15 15 -15 8 0 15 -7 15
-15 0 -8 7 -15 15 -15 8 0 15 -7 15 -15 0 -8 7 -15 15 -15 8 0 15 -7 15 -15 0
-8 7 -15 15 -15 8 0 15 -7 15 -15 0 -8 7 -15 15 -15 8 0 15 -7 15 -15 0 -8 7
-15 15 -15 8 0 15 -7 15 -15 0 -11 11 -15 40 -15 27 0 43 5 46 15 4 8 12 15
20 15 8 0 14 7 14 15 0 8 5 15 10 15 13 0 50 37 50 50 0 6 7 10 15 10 11 0 15
11 15 40 0 39 -6 47 -105 144 -95 93 -105 106 -105 139 0 26 4 37 15 37 13 0
15 23 15 150 0 127 -2 150 -15 150 -9 0 -15 10 -15 26 0 14 -7 32 -15 40 -8 9
-15 24 -15 35 0 10 -7 19 -15 19 -8 0 -15 7 -15 15 0 8 -7 15 -15 15 -8 0 -15
7 -15 15 0 8 -7 15 -15 15 -8 0 -15 7 -15 15 0 8 -7 15 -15 15 -8 0 -15 7 -15
15 0 8 -6 15 -14 15 -7 0 -19 7 -26 15 -7 8 -23 15 -35 15 -12 0 -28 6 -34 14
-6 7 -37 17 -69 20 -31 4 -76 10 -98 12 -25 4 -44 1 -48 -5z m112 -180 c2 -6
16 -11 32 -11 15 0 33 -7 40 -15 7 -8 21 -15 31 -15 11 0 19 -7 19 -15 0 -8 7
-15 15 -15 8 0 15 -7 15 -15 0 -8 7 -15 15 -15 9 0 15 -9 15 -25 0 -13 6 -28
14 -32 14 -8 22 -88 18 -190 -1 -40 -6 -53 -17 -53 -10 0 -15 -10 -15 -30 0
-20 -5 -30 -15 -30 -8 0 -15 -7 -15 -15 0 -8 -7 -15 -15 -15 -8 0 -15 -7 -15
-15 0 -9 -9 -15 -25 -15 -13 0 -28 -6 -32 -14 -12 -21 -159 -44 -176 -27 -6 6
-28 11 -49 11 -25 0 -41 5 -44 15 -4 8 -12 15 -20 15 -8 0 -14 7 -14 15 0 8
-7 15 -15 15 -8 0 -15 7 -15 15 0 8 -7 15 -15 15 -8 0 -15 7 -15 15 0 8 -6 15
-14 15 -8 0 -16 16 -19 42 -3 24 -11 44 -16 46 -17 6 -13 115 4 138 8 10 15
31 15 47 0 17 5 27 15 27 8 0 15 5 15 10 0 6 9 19 20 30 11 11 25 20 30 20 6
0 10 7 10 15 0 8 7 15 15 15 8 0 15 7 15 15 0 11 11 15 39 15 23 0 44 6 52 16
10 12 25 15 63 11 28 -2 52 -10 54 -16z"/>
<path d="M11820 6495 c0 -14 -7 -28 -15 -31 -8 -4 -15 -14 -15 -24 0 -11 -4
-21 -9 -25 -6 -3 -20 -27 -33 -53 -13 -26 -27 -50 -33 -54 -5 -4 -11 -17 -11
-28 -1 -15 6 -23 27 -27 15 -3 30 -12 33 -20 8 -21 26 -6 26 23 0 15 6 24 15
24 10 0 15 10 15 30 0 20 5 30 15 30 8 0 15 -7 15 -15 0 -8 7 -15 15 -15 10 0
15 -10 15 -30 0 -20 5 -30 15 -30 8 0 15 -7 15 -15 0 -8 7 -15 15 -15 10 0 15
10 15 30 0 20 5 30 15 30 8 0 15 8 15 19 0 10 7 24 15 31 8 7 15 19 15 26 0
10 16 14 60 14 l60 0 0 45 0 46 -87 -3 c-88 -3 -88 -3 -91 -30 -4 -32 -32 -39
-32 -9 0 11 -6 26 -14 34 -8 7 -16 25 -18 38 -2 18 -10 25 -30 27 -24 3 -28 0
-28 -23z"/>
<path d="M10560 6145 c0 -433 -2 -495 -15 -495 -8 0 -15 -7 -15 -15 0 -8 -4
-15 -10 -15 -5 0 -24 -15 -42 -33 -18 -18 -54 -48 -80 -66 -27 -19 -48 -37
-49 -40 0 -3 -2 -25 -6 -49 -3 -24 -2 -59 1 -78 l7 -34 974 0 975 0 0 75 c0
60 -3 75 -15 75 -8 0 -15 7 -15 15 0 8 -7 15 -15 15 -8 0 -15 7 -15 15 0 8 -7
15 -15 15 -8 0 -15 7 -15 15 0 8 -7 15 -15 15 -8 0 -15 7 -15 15 0 8 -7 15
-15 15 -8 0 -15 7 -15 15 0 8 -7 15 -15 15 -8 0 -15 7 -15 15 0 8 -7 15 -15
15 -8 0 -15 7 -15 15 0 8 -7 15 -15 15 -12 0 -15 17 -15 90 0 86 -1 90 -22 90
-30 0 -97 -32 -98 -47 0 -6 -7 -19 -16 -27 -12 -13 -38 -16 -120 -16 -57 0
-104 -4 -104 -9 0 -6 -12 -6 -32 0 -18 5 -240 9 -495 9 l-463 0 0 375 0 375
345 0 345 0 0 30 c0 20 5 30 15 30 10 0 15 10 15 30 l0 30 -435 0 -435 0 0
-495z m795 457 c35 -25 -1 -64 -52 -54 -18 3 -23 11 -23 33 0 26 3 29 33 29
17 0 37 -4 42 -8z m642 -988 c18 -19 33 -39 33 -44 0 -7 -256 -10 -720 -10
-633 0 -720 2 -720 15 0 8 7 15 15 15 8 0 15 7 15 15 0 8 7 15 15 15 8 0 15 7
15 15 0 13 77 15 657 14 l656 0 34 -35z m-537 -99 c0 -8 7 -15 15 -15 8 0 15
-7 15 -15 0 -13 -25 -15 -165 -15 l-165 0 0 30 0 30 150 0 c127 0 150 -2 150
-15z"/>
<path d="M8902 2665 c-7 -8 -27 -15 -45 -15 -18 0 -41 -7 -51 -15 -11 -8 -30
-15 -43 -15 -13 0 -26 -7 -29 -15 -4 -8 -14 -15 -24 -15 -10 0 -23 -7 -30 -15
-7 -8 -19 -15 -26 -15 -8 0 -14 -6 -14 -12 0 -7 -20 -22 -45 -33 -25 -11 -45
-25 -45 -32 0 -7 -7 -13 -15 -13 -8 0 -15 -7 -15 -15 0 -8 -7 -15 -15 -15 -8
0 -15 -7 -15 -15 0 -8 -7 -15 -15 -15 -8 0 -15 -9 -15 -20 0 -11 -7 -23 -15
-26 -8 -4 -15 -15 -15 -25 0 -10 -7 -19 -15 -19 -8 0 -15 -6 -15 -14 0 -7 -7
-19 -15 -26 -8 -7 -15 -19 -15 -28 0 -8 -6 -20 -14 -26 -8 -6 -16 -27 -18 -46
l-3 -35 93 -3 c77 -2 92 0 92 13 0 8 6 15 14 15 7 0 16 10 19 21 4 15 11 20
22 15 9 -3 34 -6 56 -6 37 0 39 -2 39 -30 0 -28 2 -30 40 -30 27 0 43 5 46 15
5 11 22 15 65 15 32 0 59 -4 59 -9 0 -5 11 -12 24 -15 27 -7 36 -30 36 -103 0
-36 4 -53 13 -53 16 0 47 77 47 118 l0 32 105 0 105 0 0 -28 c0 -16 7 -37 15
-48 9 -12 14 -44 15 -91 l0 -73 -60 0 -60 0 0 -45 0 -45 60 0 60 0 0 -62 c-1
-36 -7 -74 -15 -88 -8 -14 -14 -40 -15 -57 0 -32 -1 -33 -46 -33 -45 0 -45 0
-42 -32 2 -25 9 -34 28 -38 22 -5 25 -12 28 -58 2 -42 0 -52 -12 -52 -12 0
-16 -11 -16 -45 0 -33 -4 -45 -15 -45 -10 0 -15 -10 -15 -29 0 -16 -7 -34 -15
-41 -8 -7 -15 -21 -15 -31 0 -11 -7 -19 -15 -19 -8 0 -15 -8 -15 -18 0 -22
-82 -112 -102 -112 -10 0 -9 -3 2 -10 8 -5 87 -10 176 -10 125 0 164 3 180 15
10 8 33 15 50 15 17 0 37 7 44 15 7 8 25 15 41 15 19 0 29 5 29 15 0 9 9 15
25 15 14 0 28 7 31 15 4 8 12 15 20 15 8 0 14 7 14 15 0 8 8 15 18 15 10 0 32
13 50 30 18 16 37 30 43 30 5 0 9 7 9 15 0 8 7 15 15 15 8 0 15 7 15 15 0 8 7
15 15 15 8 0 15 9 15 20 0 11 6 19 12 17 7 -1 14 8 16 21 2 13 10 26 18 29 8
3 14 13 14 23 0 10 7 20 15 24 8 3 15 15 15 26 0 11 7 20 15 20 9 0 15 10 15
26 0 14 7 32 15 40 8 9 15 30 15 47 0 18 7 41 15 51 22 29 22 393 0 422 -8 10
-15 33 -15 50 0 17 -7 37 -15 44 -8 7 -15 25 -15 41 0 19 -5 29 -15 29 -9 0
-15 9 -15 25 0 14 -7 28 -15 31 -8 4 -15 12 -15 20 0 8 -7 14 -15 14 -9 0 -15
9 -15 25 0 14 -7 28 -15 31 -8 4 -15 12 -15 20 0 8 -7 14 -15 14 -8 0 -15 7
-15 15 0 8 -7 15 -15 15 -8 0 -15 7 -15 15 0 8 -7 15 -15 15 -8 0 -15 7 -15
15 0 8 -6 15 -14 15 -8 0 -16 7 -20 15 -3 8 -17 15 -31 15 -16 0 -25 6 -25 15
0 8 -6 15 -14 15 -8 0 -16 7 -20 15 -3 8 -17 15 -31 15 -16 0 -25 6 -25 15 0
9 -9 15 -24 15 -13 0 -37 7 -53 15 -15 8 -45 17 -65 20 -21 3 -38 10 -38 15 0
6 -77 10 -192 10 -156 -1 -195 -4 -206 -15z m128 -195 c0 -20 -5 -30 -15 -30
-10 0 -15 -10 -15 -34 0 -19 -7 -41 -15 -50 -8 -8 -15 -31 -15 -50 0 -58 -26
-76 -110 -76 -68 0 -70 1 -68 25 1 13 8 27 15 29 7 3 13 12 13 21 0 8 6 15 14
15 7 0 17 8 20 18 17 47 57 90 99 105 9 3 17 11 17 17 0 5 7 10 15 10 8 0 15
7 15 15 0 8 7 15 15 15 10 0 15 -10 15 -30z m180 16 c0 -7 8 -17 18 -20 34
-13 72 -37 72 -47 0 -5 7 -9 15 -9 8 0 15 -6 15 -14 0 -8 7 -16 15 -20 8 -3
15 -15 15 -26 0 -11 7 -23 15 -26 8 -4 15 -12 15 -19 0 -7 7 -15 15 -19 8 -3
15 -17 15 -31 0 -25 -1 -25 -75 -25 -47 0 -75 4 -75 11 0 6 -7 17 -15 25 -8 9
-15 33 -15 54 0 21 -7 45 -15 54 -8 8 -15 25 -15 38 0 13 -7 32 -15 42 -19 25
-19 46 0 46 8 0 15 -6 15 -14z m-90 -41 c0 -14 7 -28 15 -31 10 -4 15 -20 15
-45 0 -26 5 -42 15 -45 11 -4 15 -21 15 -59 l0 -53 -37 -3 c-21 -2 -55 -3 -75
-1 l-38 3 0 50 c0 35 4 51 15 55 10 4 15 20 15 45 0 26 5 42 15 45 9 4 15 19
15 35 0 19 5 29 15 29 9 0 15 -9 15 -25z m-300 -20 c0 -8 -7 -15 -15 -15 -8 0
-15 -9 -15 -19 0 -11 -7 -26 -15 -35 -8 -8 -15 -19 -15 -25 0 -6 -7 -11 -15
-11 -10 0 -15 -10 -15 -30 0 -29 -2 -30 -45 -30 -43 0 -45 1 -45 30 0 20 5 30
15 30 8 0 15 7 15 15 0 8 7 15 15 15 8 0 15 7 15 15 0 8 6 15 14 15 8 0 16 7
20 15 3 8 17 15 31 15 16 0 25 6 25 15 0 8 7 15 15 15 8 0 15 -7 15 -15z m600
0 c0 -10 10 -15 30 -15 20 0 30 -5 30 -15 0 -8 7 -15 15 -15 8 0 15 -7 15 -15
0 -8 7 -15 15 -15 8 0 15 -7 15 -15 0 -8 7 -15 15 -15 8 0 15 -9 15 -20 0 -11
6 -20 13 -20 8 0 7 -4 -3 -10 -8 -5 -34 -10 -57 -10 -41 0 -43 1 -43 30 0 20
-5 30 -15 30 -8 0 -15 8 -15 19 0 10 -7 24 -15 31 -8 7 -15 19 -15 26 0 8 -7
14 -15 14 -8 0 -15 7 -15 15 0 8 7 15 15 15 8 0 15 -7 15 -15z m240 -236 c0
-10 7 -19 15 -19 9 0 15 -9 15 -25 0 -14 7 -28 15 -31 8 -4 15 -18 15 -33 0
-15 7 -36 15 -47 9 -11 14 -42 15 -76 l0 -58 -80 0 c-96 0 -100 5 -100 114 0
53 -4 79 -15 90 -8 8 -15 32 -15 55 l0 41 44 0 c25 0 48 5 51 10 9 15 25 2 25
-21z m-196 -34 c10 -10 16 -33 16 -60 0 -29 5 -45 15 -49 11 -4 15 -22 15 -76
l0 -70 -105 0 -105 0 0 98 c0 53 -3 107 -6 120 -5 18 -2 24 15 29 11 3 21 9
21 13 0 3 26 8 59 9 43 1 63 -2 75 -14z m46 -416 c0 -49 -4 -75 -15 -85 -8 -9
-15 -32 -15 -53 0 -51 -14 -61 -84 -61 -51 0 -66 4 -91 26 -20 16 -26 27 -17
30 8 4 12 36 12 110 l0 104 105 0 105 0 0 -71z m240 14 c-1 -35 -6 -66 -15
-77 -8 -11 -15 -32 -15 -47 0 -15 -7 -29 -15 -33 -8 -3 -15 -17 -15 -31 0 -14
-6 -25 -14 -25 -7 0 -17 -15 -20 -32 -6 -30 -8 -31 -20 -15 -9 11 -27 17 -55
17 l-41 0 0 44 c0 28 5 46 14 49 9 4 15 31 18 94 2 49 7 94 12 101 5 8 34 12
87 12 l79 0 0 -57z m-330 -303 c0 -20 -5 -30 -15 -30 -8 0 -15 -6 -15 -14 0
-8 -7 -16 -15 -20 -8 -3 -15 -15 -15 -26 0 -11 -7 -23 -15 -26 -8 -4 -15 -12
-15 -20 0 -8 -7 -14 -15 -14 -8 0 -15 -5 -15 -11 0 -5 -13 -15 -30 -20 -16 -6
-30 -15 -30 -20 0 -5 -7 -9 -15 -9 -8 0 -15 -7 -15 -15 0 -8 -7 -15 -15 -15
-9 0 -15 9 -15 25 0 14 7 28 15 31 8 4 15 18 15 33 0 15 7 36 15 47 8 10 15
38 15 62 0 30 4 42 15 42 8 0 15 7 15 15 0 12 15 15 75 15 l75 0 0 -30z m152
-5 c10 -10 -5 -55 -18 -55 -8 0 -14 -7 -14 -15 0 -8 -7 -15 -15 -15 -8 0 -15
-7 -15 -15 0 -8 -7 -15 -15 -15 -8 0 -15 -7 -15 -15 0 -10 -10 -15 -30 -15
-20 0 -30 -5 -30 -15 0 -8 -7 -15 -15 -15 -8 0 -15 7 -15 15 0 8 7 15 15 15 8
0 15 6 15 14 0 7 7 19 15 26 8 7 15 21 15 31 0 11 7 19 15 19 9 0 15 9 15 23
0 13 3 27 7 30 8 8 77 9 85 2z"/>
<path d="M8306 2035 c-11 -8 -28 -15 -38 -15 -14 0 -18 -8 -18 -34 0 -18 -7
-39 -15 -46 -8 -7 -15 -19 -15 -26 0 -8 -7 -14 -15 -14 -8 0 -15 -7 -15 -15 0
-10 -10 -15 -29 -15 -16 0 -31 -6 -35 -15 -3 -8 -17 -15 -31 -15 l-25 0 0
-285 c0 -247 2 -285 15 -285 10 0 15 -10 15 -30 0 -20 5 -30 15 -30 8 0 15 -7
15 -15 0 -8 7 -15 15 -15 8 0 15 -7 15 -15 0 -8 7 -15 15 -15 8 0 15 -7 15
-15 0 -8 7 -15 15 -15 8 0 15 -7 15 -15 0 -8 5 -15 11 -15 6 0 17 -7 25 -15 9
-8 24 -15 35 -15 10 0 19 -7 19 -15 0 -8 5 -15 11 -15 6 0 17 -7 25 -15 9 -8
24 -15 35 -15 10 0 19 -7 19 -15 0 -10 10 -15 30 -15 20 0 30 -5 30 -15 0 -10
10 -15 30 -15 20 0 30 -5 30 -15 0 -20 47 -20 66 0 9 8 24 15 33 15 10 0 24 7
31 15 7 8 21 15 31 15 11 0 19 7 19 15 0 10 10 15 30 15 20 0 30 5 30 15 0 8
6 15 14 15 8 0 16 7 20 15 3 8 17 15 31 15 16 0 25 6 25 15 0 8 7 15 15 15 8
0 15 7 15 15 0 8 7 15 15 15 8 0 15 7 15 15 0 8 5 15 10 15 6 0 19 9 30 20 11
11 20 25 20 30 0 6 7 10 15 10 8 0 15 6 15 14 0 8 7 16 15 20 13 5 15 47 15
301 0 282 -1 295 -19 295 -10 0 -24 7 -31 15 -7 8 -19 15 -27 15 -26 0 -73 43
-73 67 0 14 -6 23 -15 23 -10 0 -15 10 -15 29 0 25 -5 31 -30 36 -16 4 -30 11
-30 16 0 5 -97 9 -232 9 -189 -1 -237 -3 -252 -15z m401 -92 c29 -9 53 -23 53
-30 0 -7 7 -13 15 -13 8 0 15 -4 15 -9 0 -15 63 -81 77 -81 7 0 13 -7 13 -15
0 -8 6 -15 13 -15 24 0 37 -54 37 -150 0 -56 -5 -107 -12 -123 l-13 -27 -162
0 c-134 0 -164 3 -177 16 -14 13 -16 49 -16 233 0 120 3 221 7 224 12 13 96 7
150 -10z m-157 -688 l0 -225 -25 0 c-14 0 -28 7 -31 15 -4 8 -12 15 -19 15 -7
0 -18 7 -25 15 -7 8 -21 15 -31 15 -11 0 -19 7 -19 15 0 8 -8 15 -19 15 -10 0
-24 7 -31 15 -7 8 -19 15 -26 15 -8 0 -14 7 -14 15 0 8 -7 15 -15 15 -8 0 -15
7 -15 15 0 8 -4 15 -10 15 -5 0 -25 16 -45 35 l-35 36 0 99 0 100 180 0 180 0
0 -225z"/>
<path d="M3427 2493 c-4 -3 -7 -233 -7 -510 0 -440 -2 -503 -15 -503 -8 0 -15
-7 -15 -15 0 -8 -7 -15 -15 -15 -8 0 -15 -7 -15 -15 0 -8 -7 -15 -15 -15 -8 0
-15 -7 -15 -15 0 -8 -7 -15 -15 -15 -8 0 -15 -7 -15 -15 0 -8 -4 -15 -9 -15
-14 0 -56 -41 -69 -67 -7 -12 -12 -49 -12 -82 l0 -61 990 0 990 0 0 75 c0 60
-3 75 -15 75 -8 0 -15 7 -15 15 0 8 -7 15 -15 15 -8 0 -15 7 -15 15 0 8 -7 15
-15 15 -8 0 -15 7 -15 15 0 8 -7 15 -15 15 -8 0 -15 7 -15 15 0 8 -4 15 -10
15 -5 0 -18 8 -29 18 -10 9 -32 29 -50 44 l-31 26 0 496 0 496 -758 0 c-417 0
-762 -3 -765 -7z m797 -39 c3 -9 6 -29 6 -45 0 -24 -4 -29 -25 -29 -25 0 -65
31 -65 50 0 6 7 10 15 10 8 0 15 7 15 15 0 20 46 20 54 -1z m586 -458 c0 -192
-3 -360 -6 -373 l-6 -23 -614 0 -614 0 0 375 0 375 621 -2 620 -3 -1 -349z
m50 -531 c0 -8 7 -15 15 -15 8 0 15 -7 15 -15 0 -8 7 -15 15 -15 8 0 15 -7 15
-15 0 -13 -88 -15 -729 -15 -686 0 -785 4 -727 26 9 3 16 12 16 20 0 8 7 14
15 14 8 0 15 7 15 15 0 13 82 15 675 15 593 0 675 -2 675 -15z m-512 -137 l3
-28 -165 0 c-141 0 -166 2 -166 15 0 8 7 15 15 15 8 0 15 7 15 15 0 13 21 15
148 13 l147 -3 3 -27z"/>
<path d="M4234 2246 c-3 -9 -12 -16 -20 -16 -8 0 -14 -7 -14 -15 0 -22 -27
-18 -33 5 -7 26 -28 18 -51 -20 -9 -17 -21 -30 -27 -30 -5 0 -9 -13 -9 -30 l0
-30 105 0 105 0 0 45 c0 33 -4 45 -15 45 -9 0 -15 9 -15 24 0 29 -18 44 -26
22z"/>
<path d="M4050 1901 c0 -99 3 -186 6 -194 8 -23 264 -25 264 -2 0 8 7 15 15
15 13 0 15 25 15 165 0 140 -2 165 -15 165 -8 0 -15 7 -15 15 0 13 -22 15
-135 15 l-135 0 0 -179z"/>
<path d="M3877 2043 c-12 -11 -8 -23 8 -23 8 0 15 -6 15 -14 0 -8 15 -16 38
-19 20 -3 46 -7 57 -9 14 -2 21 3 23 20 2 15 -2 22 -12 22 -9 0 -16 7 -16 15
0 11 -13 15 -53 15 -30 0 -57 -3 -60 -7z"/>
<path d="M4398 2043 c-13 -3 -18 -14 -18 -38 0 -37 16 -56 26 -31 4 11 19 16
50 16 42 0 44 1 44 30 0 29 -2 30 -42 29 -24 -1 -51 -3 -60 -6z"/>
<path d="M3903 1909 c-18 -12 -30 -25 -27 -30 3 -5 36 -9 75 -9 66 0 69 1 69
24 0 40 -65 48 -117 15z"/>
<path d="M4382 1899 c2 -19 6 -33 11 -31 4 1 30 2 57 2 43 0 50 3 50 19 0 26
-9 31 -71 38 l-50 6 3 -34z"/>
<path d="M3956 1795 c-3 -8 -16 -15 -30 -15 -39 0 -54 -10 -49 -30 7 -27 40
-35 68 -16 13 9 36 16 50 16 21 0 25 5 25 30 0 26 -3 30 -29 30 -16 0 -31 -6
-35 -15z"/>
<path d="M4380 1780 c0 -22 5 -30 18 -30 10 0 27 -7 38 -15 10 -8 29 -15 42
-15 18 0 22 5 22 30 0 26 -4 30 -27 30 -16 0 -37 7 -47 15 -31 23 -46 18 -46
-15z"/>
</g>
</svg>
